<svg width="41" height="50" viewBox="0 0 41 50" fill="none" xmlns="http://www.w3.org/2000/svg">
<path d="M39.2917 0H5.125C3.76622 0.0014558 2.46353 0.528707 1.50273 1.46607C0.541925 2.40344 0.00149219 3.67436 0 5V45C0.00149219 46.3256 0.541925 47.5966 1.50273 48.5339C2.46353 49.4713 3.76622 49.9985 5.125 50H39.2917C39.7447 50 40.1793 49.8244 40.4996 49.5118C40.82 49.1993 41 48.7754 41 48.3333V1.66667C41 1.22464 40.82 0.800716 40.4996 0.488155C40.1793 0.175595 39.7447 0 39.2917 0ZM37.5833 40H10.25V3.33333H37.5833V40ZM3.41667 5C3.41725 4.55815 3.59743 4.13456 3.91767 3.82212C4.23792 3.50969 4.6721 3.33391 5.125 3.33333H6.83333V40H5.125C4.5438 40.0081 3.96744 40.1044 3.41667 40.2857V5ZM37.5833 46.6667H5.125C4.67192 46.6667 4.2374 46.4911 3.91703 46.1785C3.59665 45.866 3.41667 45.442 3.41667 45C3.41667 44.558 3.59665 44.134 3.91703 43.8215C4.2374 43.5089 4.67192 43.3333 5.125 43.3333H37.5833V46.6667Z" fill="url(#paint0_linear_413_47)"/>
<path d="M15.375 18.3337H32.4583C32.9114 18.3337 33.3459 18.1581 33.6663 17.8455C33.9866 17.5329 34.1666 17.109 34.1666 16.667V8.33366C34.1666 7.89163 33.9866 7.46771 33.6663 7.15515C33.3459 6.84259 32.9114 6.66699 32.4583 6.66699H15.375C14.9219 6.66699 14.4874 6.84259 14.167 7.15515C13.8466 7.46771 13.6666 7.89163 13.6666 8.33366V16.667C13.6666 17.109 13.8466 17.5329 14.167 17.8455C14.4874 18.1581 14.9219 18.3337 15.375 18.3337ZM17.0833 10.0003H30.75V15.0003H17.0833V10.0003Z" fill="url(#paint1_linear_413_47)"/>
<defs>
<linearGradient id="paint0_linear_413_47" x1="20.5" y1="0" x2="20.5" y2="50" gradientUnits="userSpaceOnUse">
<stop stop-color="#FF7E3E"/>
<stop offset="1" stop-color="#F49D03"/>
</linearGradient>
<linearGradient id="paint1_linear_413_47" x1="23.9166" y1="6.66699" x2="23.9166" y2="18.3337" gradientUnits="userSpaceOnUse">
<stop stop-color="#FF7E3E"/>
<stop offset="1" stop-color="#F49D03"/>
</linearGradient>
</defs>
</svg>
