<svg width="82" height="100" viewBox="0 0 82 100" fill="none" xmlns="http://www.w3.org/2000/svg">
<path d="M80.2461 18.0951L44.7133 0.238119C44.0819 -0.0793731 43.3828 -0.0793731 42.7514 0.238119L7.21857 18.0951C6.71441 18.3763 6.28191 18.8391 5.97161 19.4295C5.66131 20.02 5.48603 20.7136 5.46626 21.4294V73.7082L0.633528 81.286C0.280343 81.8397 0.0636759 82.5202 0.012013 83.2379C-0.0396499 83.9556 0.0761096 84.6769 0.344072 85.307L5.81065 98.164C6.04744 98.7205 6.39378 99.1842 6.8138 99.507C7.23383 99.8298 7.71226 100 8.19955 100C8.68684 100 9.16527 99.8298 9.5853 99.507C10.0053 99.1842 10.3517 98.7205 10.5884 98.164L16.055 85.307C16.323 84.6769 16.4388 83.9556 16.3871 83.2379C16.3354 82.5202 16.1188 81.8397 15.7656 81.286L10.9328 73.7082V26.63L19.1327 30.7507V49.7148C19.1328 50.4364 19.3001 51.141 19.6126 51.7359C19.9252 52.3307 20.3683 52.788 20.8837 53.0473L42.75 64.0472C43.3822 64.3658 44.0825 64.3658 44.7147 64.0472L66.581 53.0473C67.0963 52.788 67.5395 52.3307 67.852 51.7359C68.1646 51.141 68.3319 50.4364 68.3319 49.7148V30.7507L80.2461 24.7633C80.7622 24.5044 81.2061 24.0472 81.5192 23.4519C81.8324 22.8567 82 22.1513 82 21.429C82 20.7067 81.8324 20.0013 81.5192 19.4061C81.2061 18.8108 80.7622 18.3539 80.2461 18.0951ZM8.19955 89.0748L6.03205 83.9777L8.19955 80.5788L10.3671 83.9777L8.19955 89.0748ZM62.8654 47.2627L43.7323 56.8869L24.5993 47.2627V33.4982L42.7514 42.6206C43.3828 42.9381 44.0819 42.9381 44.7133 42.6206L62.8654 33.4982V47.2627ZM64.6822 24.9318C64.6603 24.9418 64.6368 24.9429 64.6149 24.9536L43.7323 35.4603L22.9432 25.0008H43.7323C44.4572 25.0008 45.1525 24.6245 45.6651 23.9547C46.1777 23.2849 46.4656 22.3766 46.4656 21.4294C46.4656 20.4822 46.1777 19.5738 45.6651 18.904C45.1525 18.2342 44.4572 17.858 43.7323 17.858H22.92L43.7323 7.39841L71.6513 21.4294L64.6822 24.9318Z" fill="url(#paint0_linear_328_57)"/>
<defs>
<linearGradient id="paint0_linear_328_57" x1="44.7615" y1="5.39216" x2="38.3851" y2="99.8234" gradientUnits="userSpaceOnUse">
<stop stop-color="#FF7E3E"/>
<stop offset="1" stop-color="#F49D03"/>
</linearGradient>
</defs>
</svg>
