<svg width="56" height="60" viewBox="0 0 56 60" fill="none" xmlns="http://www.w3.org/2000/svg">
<path d="M28 11.0811V2M28 58V48.9189M45.5676 30H54M2 30H10.4324M40.4229 16.6229L46.3856 10.2016M9.61381 49.799L15.5764 43.3777M40.4229 43.3771L46.3856 49.7984M9.61381 10.201L15.5764 16.6223M37.6654 29.6309C37.6654 35.4299 33.3001 40.1309 27.9154 40.1309C22.5306 40.1309 18.1654 35.4299 18.1654 29.6309C18.1654 23.8319 22.5306 19.1309 27.9154 19.1309C33.3001 19.1309 37.6654 23.8319 37.6654 29.6309Z" stroke="url(#paint0_linear_355_105)" stroke-width="4" stroke-linecap="round" stroke-linejoin="round"/>
<defs>
<linearGradient id="paint0_linear_355_105" x1="28" y1="2" x2="28" y2="58" gradientUnits="userSpaceOnUse">
<stop stop-color="#FF7E3E"/>
<stop offset="1" stop-color="#F49D03"/>
</linearGradient>
</defs>
</svg>
