<svg width="32" height="48" viewBox="0 0 32 48" fill="none" xmlns="http://www.w3.org/2000/svg">
<path d="M16 1.4368e-07C12.478 -0.000488279 9.05434 1.24429 6.26001 3.54123C3.46567 5.83818 1.45688 9.05892 0.545236 12.7039C-0.366411 16.3488 -0.129957 20.2142 1.21792 23.7004C2.56579 27.1867 4.94975 30.099 8 31.9855V41.1429C8 41.5975 8.16857 42.0336 8.46863 42.355C8.76869 42.6765 9.17565 42.8571 9.6 42.8571H11.2C11.2 44.2211 11.7057 45.5292 12.6059 46.4937C13.5061 47.4582 14.727 48 16 48C17.273 48 18.4939 47.4582 19.3941 46.4937C20.2943 45.5292 20.8 44.2211 20.8 42.8571H22.4C22.8244 42.8571 23.2313 42.6765 23.5314 42.355C23.8314 42.0336 24 41.5975 24 41.1429V31.9855C27.0503 30.099 29.4342 27.1867 30.7821 23.7004C32.13 20.2142 32.3664 16.3488 31.4548 12.7039C30.5431 9.05892 28.5343 5.83818 25.74 3.54123C22.9457 1.24429 19.522 -0.000488279 16 1.4368e-07ZM16 44.5714C15.5758 44.5708 15.1692 44.39 14.8692 44.0687C14.5693 43.7473 14.4006 43.3116 14.4 42.8571H17.6C17.5995 43.3116 17.4307 43.7473 17.1308 44.0687C16.8308 44.39 16.4242 44.5708 16 44.5714ZM11.2 39.4286V37.7143H20.8V39.4286H11.2ZM21.6883 29.425C21.4215 29.5668 21.1969 29.7857 21.04 30.0569C20.883 30.3281 20.7999 30.6409 20.8 30.96V34.2857H17.6V31.567L20.3312 28.6406C20.6227 28.3173 20.7839 27.8842 20.7803 27.4347C20.7766 26.9853 20.6084 26.5553 20.3117 26.2375C20.0151 25.9196 19.6138 25.7393 19.1942 25.7354C18.7747 25.7315 18.3706 25.9043 18.0688 26.2166L16 28.433L13.9312 26.2166C13.6294 25.9043 13.2253 25.7315 12.8058 25.7354C12.3862 25.7393 11.9849 25.9196 11.6883 26.2375C11.3916 26.5553 11.2234 26.9853 11.2197 27.4347C11.2161 27.8842 11.3773 28.3173 11.6688 28.6406L14.4 31.567V34.2857H11.2V30.96C11.2001 30.6409 11.117 30.328 10.9601 30.0568C10.8031 29.7855 10.5785 29.5667 10.3117 29.4249C7.72545 28.0503 5.64884 25.7795 4.41908 22.981C3.18931 20.1825 2.87862 17.0208 3.53744 14.0093C4.19627 10.9978 5.78592 8.31333 8.04826 6.39186C10.3106 4.47039 13.1128 3.42475 15.9997 3.42475C18.8866 3.42475 21.6888 4.47039 23.9511 6.39186C26.2134 8.31333 27.8031 10.9978 28.4619 14.0093C29.1207 17.0208 28.81 20.1825 27.5803 22.981C26.3505 25.7795 24.2746 28.0505 21.6883 29.425Z" fill="url(#paint0_linear_345_40)"/>
<path d="M16 6.85742C13.4548 6.86042 11.0146 7.94505 9.21489 9.87335C7.41514 11.8016 6.40282 14.4161 6.40002 17.1431C6.40002 17.5978 6.5686 18.0338 6.86865 18.3553C7.16871 18.6768 7.57568 18.8574 8.00002 18.8574C8.42437 18.8574 8.83134 18.6768 9.1314 18.3553C9.43145 18.0338 9.60003 17.5978 9.60003 17.1431C9.60193 15.3251 10.2768 13.5822 11.4766 12.2967C12.6765 11.0111 14.3032 10.288 16 10.286C16.4244 10.286 16.8313 10.1054 17.1314 9.78389C17.4315 9.4624 17.6 9.02636 17.6 8.57171C17.6 8.11705 17.4315 7.68102 17.1314 7.35952C16.8313 7.03803 16.4244 6.85742 16 6.85742Z" fill="url(#paint1_linear_345_40)"/>
<defs>
<linearGradient id="paint0_linear_345_40" x1="16" y1="0" x2="16" y2="48" gradientUnits="userSpaceOnUse">
<stop stop-color="#FF7E3E"/>
<stop offset="1" stop-color="#F49D03"/>
</linearGradient>
<linearGradient id="paint1_linear_345_40" x1="12" y1="6.85742" x2="12" y2="18.8574" gradientUnits="userSpaceOnUse">
<stop stop-color="#FF7E3E"/>
<stop offset="1" stop-color="#F49D03"/>
</linearGradient>
</defs>
</svg>
