<svg width="60" height="47" viewBox="0 0 60 47" fill="none" xmlns="http://www.w3.org/2000/svg">
<path d="M59.6482 18.4741C59.4644 18.2123 59.2183 17.9981 58.9311 17.8502C58.644 17.7023 58.3243 17.625 57.9998 17.625H49.9999V9.79167C49.9999 9.27228 49.7891 8.77417 49.4141 8.40692C49.039 8.03966 48.5303 7.83333 47.9999 7.83333H24.9365L20.9799 0.992484C20.8055 0.691154 20.5525 0.44053 20.2468 0.266174C19.9411 0.0918183 19.5937 -2.91064e-05 19.2399 6.91898e-09H1.99999C1.46956 6.91898e-09 0.960856 0.206324 0.585785 0.573583C0.210713 0.940842 0 1.43895 0 1.95833V45.0417C0.00757843 45.5583 0.220343 46.0517 0.593182 46.4172C0.96602 46.7828 1.46962 46.9919 1.99719 47H1.99999H47.9999C48.404 46.9998 48.7987 46.8799 49.132 46.656C49.4652 46.4321 49.7215 46.1147 49.8671 45.7455L59.867 20.2872C59.9834 19.9902 60.0243 19.67 59.9862 19.3542C59.948 19.0384 59.8321 18.7363 59.6482 18.4741ZM18.0732 3.91667L22.0301 10.7575C22.2046 11.0588 22.4576 11.3095 22.7633 11.4838C23.0689 11.6582 23.4164 11.75 23.7701 11.75H45.9999V17.625H12C11.5958 17.6252 11.2011 17.7451 10.8679 17.969C10.5346 18.1929 10.2783 18.5103 10.1328 18.8795L3.99999 34.4927V3.91667H18.0732ZM46.6259 43.0833H4.91279L13.374 21.5417H55.0876L46.6259 43.0833Z" fill="url(#paint0_linear_429_50)"/>
<defs>
<linearGradient id="paint0_linear_429_50" x1="30" y1="0" x2="13.2679" y2="47.2254" gradientUnits="userSpaceOnUse">
<stop stop-color="#FF7E3E"/>
<stop offset="1" stop-color="#F49D03"/>
</linearGradient>
</defs>
</svg>
