<svg width="1064" height="232" viewBox="0 0 1064 232" fill="none" xmlns="http://www.w3.org/2000/svg">
<rect x="261" y="39" width="222" height="41" rx="5" fill="#F49D03" fill-opacity="0.8"/>
<path d="M270.438 66V52.9091H275.104C276.119 52.9091 276.96 53.0838 277.629 53.4332C278.303 53.7827 278.805 54.2663 279.138 54.8842C279.47 55.4979 279.636 56.2074 279.636 57.0128C279.636 57.8139 279.468 58.5192 279.131 59.1286C278.799 59.7337 278.296 60.2045 277.623 60.5412C276.954 60.8778 276.112 61.0462 275.098 61.0462H271.563V59.3459H274.919C275.558 59.3459 276.078 59.2543 276.479 59.071C276.884 58.8878 277.18 58.6214 277.367 58.272C277.555 57.9226 277.648 57.5028 277.648 57.0128C277.648 56.5185 277.553 56.0902 277.361 55.728C277.173 55.3658 276.877 55.0888 276.472 54.897C276.072 54.701 275.545 54.603 274.893 54.603H272.413V66H270.438ZM276.901 60.0938L280.135 66H277.885L274.714 60.0938H276.901ZM281.886 66V56.1818H283.798V66H281.886ZM282.852 54.6669C282.519 54.6669 282.234 54.5561 281.995 54.3345C281.761 54.1087 281.643 53.8402 281.643 53.5291C281.643 53.2138 281.761 52.9453 281.995 52.7237C282.234 52.4979 282.519 52.3849 282.852 52.3849C283.184 52.3849 283.467 52.4979 283.702 52.7237C283.94 52.9453 284.06 53.2138 284.06 53.5291C284.06 53.8402 283.94 54.1087 283.702 54.3345C283.467 54.5561 283.184 54.6669 282.852 54.6669ZM293.726 58.5788L291.994 58.8857C291.921 58.6641 291.806 58.4531 291.649 58.2528C291.495 58.0526 291.286 57.8885 291.022 57.7607C290.758 57.6328 290.428 57.5689 290.031 57.5689C289.49 57.5689 289.039 57.6903 288.676 57.9332C288.314 58.1719 288.133 58.4808 288.133 58.8601C288.133 59.1882 288.254 59.4524 288.497 59.6527C288.74 59.853 289.132 60.017 289.673 60.1449L291.233 60.5028C292.137 60.7116 292.81 61.0334 293.253 61.468C293.696 61.9027 293.918 62.4673 293.918 63.1619C293.918 63.75 293.747 64.2741 293.406 64.7344C293.07 65.1903 292.599 65.5483 291.994 65.8082C291.393 66.0682 290.696 66.1982 289.904 66.1982C288.804 66.1982 287.907 65.9638 287.213 65.495C286.518 65.022 286.092 64.3509 285.934 63.4815L287.781 63.2003C287.896 63.6818 288.133 64.0462 288.491 64.2933C288.849 64.5362 289.316 64.6577 289.891 64.6577C290.517 64.6577 291.018 64.5277 291.393 64.2678C291.768 64.0036 291.955 63.6818 291.955 63.3026C291.955 62.9957 291.84 62.7379 291.61 62.5291C291.384 62.3203 291.037 62.1626 290.568 62.0561L288.906 61.6918C287.99 61.483 287.313 61.1506 286.874 60.6946C286.439 60.2386 286.222 59.6612 286.222 58.9624C286.222 58.3828 286.384 57.8757 286.708 57.4411C287.031 57.0064 287.479 56.6676 288.05 56.4247C288.621 56.1776 289.275 56.054 290.012 56.054C291.073 56.054 291.909 56.2841 292.518 56.7443C293.127 57.2003 293.53 57.8118 293.726 58.5788ZM297.777 62.6697L297.764 60.3366H298.097L302.009 56.1818H304.297L299.835 60.9119H299.535L297.777 62.6697ZM296.019 66V52.9091H297.93V66H296.019ZM302.219 66L298.704 61.3338L300.021 59.9979L304.565 66H302.219ZM307.3 69.6818C307.014 69.6818 306.754 69.6584 306.52 69.6115C306.285 69.5689 306.111 69.522 305.996 69.4709L306.456 67.9048C306.805 67.9986 307.116 68.0391 307.389 68.0263C307.662 68.0135 307.903 67.9112 308.111 67.7195C308.324 67.5277 308.512 67.2145 308.674 66.7798L308.91 66.1278L305.318 56.1818H307.363L309.85 63.8011H309.952L312.439 56.1818H314.491L310.444 67.3104C310.257 67.8217 310.018 68.2543 309.729 68.608C309.439 68.9659 309.094 69.2344 308.693 69.4134C308.292 69.5923 307.828 69.6818 307.3 69.6818ZM321.204 66V52.9091H329.322V54.6094H323.179V58.598H328.74V60.2919H323.179V66H321.204ZM331.597 66V56.1818H333.509V66H331.597ZM332.562 54.6669C332.23 54.6669 331.945 54.5561 331.706 54.3345C331.472 54.1087 331.354 53.8402 331.354 53.5291C331.354 53.2138 331.472 52.9453 331.706 52.7237C331.945 52.4979 332.23 52.3849 332.562 52.3849C332.895 52.3849 333.178 52.4979 333.413 52.7237C333.651 52.9453 333.771 53.2138 333.771 53.5291C333.771 53.8402 333.651 54.1087 333.413 54.3345C333.178 54.5561 332.895 54.6669 332.562 54.6669ZM336.08 66V56.1818H337.927V57.7415H338.029C338.208 57.2131 338.524 56.7976 338.975 56.495C339.431 56.1882 339.947 56.0348 340.522 56.0348C340.642 56.0348 340.782 56.0391 340.944 56.0476C341.11 56.0561 341.24 56.0668 341.334 56.0795V57.9077C341.257 57.8864 341.121 57.8629 340.925 57.8374C340.729 57.8075 340.533 57.7926 340.337 57.7926C339.885 57.7926 339.482 57.8885 339.129 58.0803C338.779 58.2678 338.502 58.5298 338.298 58.8665C338.093 59.1989 337.991 59.5781 337.991 60.0043V66H336.08ZM342.988 66V56.1818H344.822V57.7798H344.944C345.148 57.2386 345.483 56.8168 345.947 56.5142C346.412 56.2074 346.968 56.054 347.616 56.054C348.272 56.054 348.822 56.2074 349.265 56.5142C349.712 56.821 350.043 57.2429 350.256 57.7798H350.358C350.592 57.2557 350.965 56.8381 351.477 56.527C351.988 56.2116 352.597 56.054 353.305 56.054C354.195 56.054 354.922 56.3331 355.484 56.8913C356.051 57.4496 356.335 58.2912 356.335 59.4162V66H354.423V59.5952C354.423 58.9304 354.242 58.4489 353.88 58.1506C353.518 57.8523 353.085 57.7031 352.582 57.7031C351.96 57.7031 351.477 57.8949 351.131 58.2784C350.786 58.6577 350.614 59.1456 350.614 59.7422V66H348.709V59.4737C348.709 58.9411 348.543 58.5128 348.21 58.1889C347.878 57.8651 347.445 57.7031 346.913 57.7031C346.55 57.7031 346.216 57.799 345.909 57.9908C345.607 58.1783 345.362 58.4403 345.174 58.777C344.991 59.1136 344.899 59.5036 344.899 59.9467V66H342.988ZM361.753 66.2173C361.131 66.2173 360.569 66.1023 360.066 65.8722C359.563 65.6378 359.165 65.299 358.871 64.8558C358.581 64.4126 358.436 63.8693 358.436 63.2259C358.436 62.6719 358.542 62.2159 358.756 61.858C358.969 61.5 359.256 61.2166 359.618 61.0078C359.981 60.799 360.385 60.6413 360.833 60.5348C361.28 60.4283 361.736 60.3473 362.201 60.2919C362.789 60.2237 363.266 60.1683 363.633 60.1257C363.999 60.0788 364.265 60.0043 364.432 59.902C364.598 59.7997 364.681 59.6335 364.681 59.4034V59.3587C364.681 58.8004 364.523 58.3679 364.208 58.0611C363.897 57.7543 363.432 57.6009 362.814 57.6009C362.171 57.6009 361.664 57.7436 361.293 58.0291C360.927 58.3104 360.673 58.6236 360.532 58.9688L358.736 58.5597C358.949 57.9631 359.26 57.4815 359.67 57.1151C360.083 56.7443 360.558 56.4759 361.095 56.3097C361.632 56.1392 362.197 56.054 362.789 56.054C363.181 56.054 363.596 56.1009 364.035 56.1946C364.479 56.2841 364.892 56.4503 365.275 56.6932C365.663 56.9361 365.981 57.2834 366.228 57.7351C366.475 58.1825 366.599 58.7642 366.599 59.4801V66H364.732V64.6577H364.655C364.532 64.9048 364.346 65.1477 364.099 65.3864C363.852 65.625 363.535 65.8232 363.147 65.9808C362.759 66.1385 362.295 66.2173 361.753 66.2173ZM362.169 64.6832C362.697 64.6832 363.149 64.5788 363.524 64.37C363.903 64.1612 364.191 63.8885 364.387 63.5518C364.587 63.2109 364.687 62.8466 364.687 62.4588V61.1932C364.619 61.2614 364.487 61.3253 364.291 61.3849C364.099 61.4403 363.88 61.4893 363.633 61.532C363.385 61.5703 363.145 61.6065 362.91 61.6406C362.676 61.6705 362.48 61.696 362.322 61.7173C361.952 61.7642 361.613 61.843 361.306 61.9538C361.003 62.0646 360.76 62.2244 360.577 62.4332C360.398 62.6378 360.309 62.9105 360.309 63.2514C360.309 63.7244 360.483 64.0824 360.833 64.3253C361.182 64.5639 361.628 64.6832 362.169 64.6832ZM371.055 60.1705V66H369.144V56.1818H370.979V57.7798H371.1C371.326 57.2599 371.68 56.8423 372.161 56.527C372.647 56.2116 373.259 56.054 373.996 56.054C374.665 56.054 375.251 56.1946 375.754 56.4759C376.256 56.7528 376.646 57.1662 376.923 57.7159C377.2 58.2656 377.339 58.9453 377.339 59.755V66H375.428V59.9851C375.428 59.2734 375.242 58.7173 374.871 58.3168C374.501 57.9119 373.991 57.7095 373.344 57.7095C372.901 57.7095 372.506 57.8054 372.161 57.9972C371.82 58.1889 371.55 58.4702 371.349 58.8409C371.153 59.2074 371.055 59.6506 371.055 60.1705ZM387.259 58.5788L385.527 58.8857C385.455 58.6641 385.339 58.4531 385.182 58.2528C385.028 58.0526 384.82 57.8885 384.555 57.7607C384.291 57.6328 383.961 57.5689 383.565 57.5689C383.023 57.5689 382.572 57.6903 382.21 57.9332C381.847 58.1719 381.666 58.4808 381.666 58.8601C381.666 59.1882 381.788 59.4524 382.031 59.6527C382.273 59.853 382.665 60.017 383.207 60.1449L384.766 60.5028C385.67 60.7116 386.343 61.0334 386.786 61.468C387.229 61.9027 387.451 62.4673 387.451 63.1619C387.451 63.75 387.281 64.2741 386.94 64.7344C386.603 65.1903 386.132 65.5483 385.527 65.8082C384.926 66.0682 384.229 66.1982 383.437 66.1982C382.337 66.1982 381.44 65.9638 380.746 65.495C380.051 65.022 379.625 64.3509 379.467 63.4815L381.315 63.2003C381.43 63.6818 381.666 64.0462 382.024 64.2933C382.382 64.5362 382.849 64.6577 383.424 64.6577C384.05 64.6577 384.551 64.5277 384.926 64.2678C385.301 64.0036 385.489 63.6818 385.489 63.3026C385.489 62.9957 385.374 62.7379 385.143 62.5291C384.918 62.3203 384.57 62.1626 384.102 62.0561L382.44 61.6918C381.523 61.483 380.846 61.1506 380.407 60.6946C379.972 60.2386 379.755 59.6612 379.755 58.9624C379.755 58.3828 379.917 57.8757 380.241 57.4411C380.565 57.0064 381.012 56.6676 381.583 56.4247C382.154 56.1776 382.808 56.054 383.545 56.054C384.607 56.054 385.442 56.2841 386.051 56.7443C386.661 57.2003 387.063 57.8118 387.259 58.5788ZM390.76 69.6818C390.475 69.6818 390.215 69.6584 389.981 69.6115C389.746 69.5689 389.572 69.522 389.456 69.4709L389.917 67.9048C390.266 67.9986 390.577 68.0391 390.85 68.0263C391.123 68.0135 391.363 67.9112 391.572 67.7195C391.785 67.5277 391.973 67.2145 392.135 66.7798L392.371 66.1278L388.779 56.1818H390.824L393.311 63.8011H393.413L395.9 56.1818H397.952L393.905 67.3104C393.718 67.8217 393.479 68.2543 393.189 68.608C392.9 68.9659 392.555 69.2344 392.154 69.4134C391.753 69.5923 391.289 69.6818 390.76 69.6818ZM402.324 66.2173C401.702 66.2173 401.139 66.1023 400.636 65.8722C400.133 65.6378 399.735 65.299 399.441 64.8558C399.151 64.4126 399.006 63.8693 399.006 63.2259C399.006 62.6719 399.113 62.2159 399.326 61.858C399.539 61.5 399.827 61.2166 400.189 61.0078C400.551 60.799 400.956 60.6413 401.403 60.5348C401.851 60.4283 402.307 60.3473 402.771 60.2919C403.359 60.2237 403.836 60.1683 404.203 60.1257C404.569 60.0788 404.836 60.0043 405.002 59.902C405.168 59.7997 405.251 59.6335 405.251 59.4034V59.3587C405.251 58.8004 405.094 58.3679 404.778 58.0611C404.467 57.7543 404.003 57.6009 403.385 57.6009C402.741 57.6009 402.234 57.7436 401.863 58.0291C401.497 58.3104 401.243 58.6236 401.103 58.9688L399.307 58.5597C399.52 57.9631 399.831 57.4815 400.24 57.1151C400.653 56.7443 401.128 56.4759 401.665 56.3097C402.202 56.1392 402.767 56.054 403.359 56.054C403.751 56.054 404.167 56.1009 404.606 56.1946C405.049 56.2841 405.462 56.4503 405.846 56.6932C406.233 56.9361 406.551 57.2834 406.798 57.7351C407.045 58.1825 407.169 58.7642 407.169 59.4801V66H405.302V64.6577H405.226C405.102 64.9048 404.917 65.1477 404.67 65.3864C404.422 65.625 404.105 65.8232 403.717 65.9808C403.329 66.1385 402.865 66.2173 402.324 66.2173ZM402.739 64.6832C403.268 64.6832 403.719 64.5788 404.094 64.37C404.474 64.1612 404.761 63.8885 404.957 63.5518C405.157 63.2109 405.258 62.8466 405.258 62.4588V61.1932C405.189 61.2614 405.057 61.3253 404.861 61.3849C404.67 61.4403 404.45 61.4893 404.203 61.532C403.956 61.5703 403.715 61.6065 403.481 61.6406C403.246 61.6705 403.05 61.696 402.893 61.7173C402.522 61.7642 402.183 61.843 401.876 61.9538C401.574 62.0646 401.331 62.2244 401.148 62.4332C400.969 62.6378 400.879 62.9105 400.879 63.2514C400.879 63.7244 401.054 64.0824 401.403 64.3253C401.753 64.5639 402.198 64.6832 402.739 64.6832ZM411.626 60.1705V66H409.714V52.9091H411.6V57.7798H411.722C411.952 57.2514 412.303 56.8317 412.776 56.5206C413.249 56.2095 413.867 56.054 414.63 56.054C415.303 56.054 415.891 56.1925 416.394 56.4695C416.901 56.7464 417.293 57.1598 417.57 57.7095C417.852 58.255 417.992 58.9368 417.992 59.755V66H416.081V59.9851C416.081 59.2649 415.896 58.7067 415.525 58.3104C415.154 57.9098 414.638 57.7095 413.978 57.7095C413.526 57.7095 413.121 57.8054 412.763 57.9972C412.41 58.1889 412.131 58.4702 411.926 58.8409C411.726 59.2074 411.626 59.6506 411.626 60.1705ZM425.46 52.9091H427.857L432.024 63.0852H432.178L436.345 52.9091H438.742V66H436.863V56.527H436.742L432.881 65.9808H431.321L427.46 56.5206H427.339V66H425.46V52.9091ZM444.318 66.2173C443.696 66.2173 443.133 66.1023 442.63 65.8722C442.127 65.6378 441.729 65.299 441.435 64.8558C441.145 64.4126 441 63.8693 441 63.2259C441 62.6719 441.107 62.2159 441.32 61.858C441.533 61.5 441.821 61.2166 442.183 61.0078C442.545 60.799 442.95 60.6413 443.397 60.5348C443.845 60.4283 444.301 60.3473 444.765 60.2919C445.353 60.2237 445.831 60.1683 446.197 60.1257C446.564 60.0788 446.83 60.0043 446.996 59.902C447.162 59.7997 447.245 59.6335 447.245 59.4034V59.3587C447.245 58.8004 447.088 58.3679 446.772 58.0611C446.461 57.7543 445.997 57.6009 445.379 57.6009C444.735 57.6009 444.228 57.7436 443.858 58.0291C443.491 58.3104 443.238 58.6236 443.097 58.9688L441.301 58.5597C441.514 57.9631 441.825 57.4815 442.234 57.1151C442.647 56.7443 443.123 56.4759 443.659 56.3097C444.196 56.1392 444.761 56.054 445.353 56.054C445.745 56.054 446.161 56.1009 446.6 56.1946C447.043 56.2841 447.456 56.4503 447.84 56.6932C448.228 56.9361 448.545 57.2834 448.792 57.7351C449.039 58.1825 449.163 58.7642 449.163 59.4801V66H447.297V64.6577H447.22C447.096 64.9048 446.911 65.1477 446.664 65.3864C446.417 65.625 446.099 65.8232 445.711 65.9808C445.324 66.1385 444.859 66.2173 444.318 66.2173ZM444.733 64.6832C445.262 64.6832 445.713 64.5788 446.088 64.37C446.468 64.1612 446.755 63.8885 446.951 63.5518C447.152 63.2109 447.252 62.8466 447.252 62.4588V61.1932C447.184 61.2614 447.051 61.3253 446.855 61.3849C446.664 61.4403 446.444 61.4893 446.197 61.532C445.95 61.5703 445.709 61.6065 445.475 61.6406C445.24 61.6705 445.044 61.696 444.887 61.7173C444.516 61.7642 444.177 61.843 443.87 61.9538C443.568 62.0646 443.325 62.2244 443.142 62.4332C442.963 62.6378 442.873 62.9105 442.873 63.2514C442.873 63.7244 443.048 64.0824 443.397 64.3253C443.747 64.5639 444.192 64.6832 444.733 64.6832ZM453.62 60.1705V66H451.709V56.1818H453.543V57.7798H453.665C453.89 57.2599 454.244 56.8423 454.726 56.527C455.211 56.2116 455.823 56.054 456.56 56.054C457.229 56.054 457.815 56.1946 458.318 56.4759C458.821 56.7528 459.211 57.1662 459.488 57.7159C459.765 58.2656 459.903 58.9453 459.903 59.755V66H457.992V59.9851C457.992 59.2734 457.807 58.7173 457.436 58.3168C457.065 57.9119 456.556 57.7095 455.908 57.7095C455.465 57.7095 455.071 57.8054 454.726 57.9972C454.385 58.1889 454.114 58.4702 453.914 58.8409C453.718 59.2074 453.62 59.6506 453.62 60.1705ZM462.466 66V56.1818H464.378V66H462.466ZM463.432 54.6669C463.099 54.6669 462.814 54.5561 462.575 54.3345C462.341 54.1087 462.224 53.8402 462.224 53.5291C462.224 53.2138 462.341 52.9453 462.575 52.7237C462.814 52.4979 463.099 52.3849 463.432 52.3849C463.764 52.3849 464.047 52.4979 464.282 52.7237C464.52 52.9453 464.64 53.2138 464.64 53.5291C464.64 53.8402 464.52 54.1087 464.282 54.3345C464.047 54.5561 463.764 54.6669 463.432 54.6669ZM468.707 62.6697L468.694 60.3366H469.026L472.938 56.1818H475.227L470.765 60.9119H470.464L468.707 62.6697ZM466.949 66V52.9091H468.86V66H466.949ZM473.149 66L469.634 61.3338L470.95 59.9979L475.495 66H473.149Z" fill="white"/>
<rect x="266" y="196" width="211" height="36" rx="5" fill="#F49D03" fill-opacity="0.8"/>
<path d="M281.438 220V206.909H286.104C287.119 206.909 287.96 207.084 288.629 207.433C289.303 207.783 289.805 208.266 290.138 208.884C290.47 209.498 290.636 210.207 290.636 211.013C290.636 211.814 290.468 212.519 290.131 213.129C289.799 213.734 289.296 214.205 288.623 214.541C287.954 214.878 287.112 215.046 286.098 215.046H282.563V213.346H285.919C286.558 213.346 287.078 213.254 287.479 213.071C287.884 212.888 288.18 212.621 288.367 212.272C288.555 211.923 288.648 211.503 288.648 211.013C288.648 210.518 288.553 210.09 288.361 209.728C288.173 209.366 287.877 209.089 287.472 208.897C287.072 208.701 286.545 208.603 285.893 208.603H283.413V220H281.438ZM287.901 214.094L291.135 220H288.885L285.714 214.094H287.901ZM292.886 220V210.182H294.798V220H292.886ZM293.852 208.667C293.519 208.667 293.234 208.556 292.995 208.335C292.761 208.109 292.643 207.84 292.643 207.529C292.643 207.214 292.761 206.945 292.995 206.724C293.234 206.498 293.519 206.385 293.852 206.385C294.184 206.385 294.467 206.498 294.702 206.724C294.94 206.945 295.06 207.214 295.06 207.529C295.06 207.84 294.94 208.109 294.702 208.335C294.467 208.556 294.184 208.667 293.852 208.667ZM297.164 220V218.69L302.482 211.933V211.844H297.337V210.182H304.867V211.575L299.753 218.249V218.338H305.046V220H297.164ZM309.058 216.67L309.045 214.337H309.378L313.29 210.182H315.578L311.116 214.912H310.816L309.058 216.67ZM307.3 220V206.909H309.212V220H307.3ZM313.501 220L309.985 215.334L311.302 213.998L315.847 220H313.501ZM320.177 220.217C319.555 220.217 318.993 220.102 318.49 219.872C317.987 219.638 317.588 219.299 317.294 218.856C317.005 218.413 316.86 217.869 316.86 217.226C316.86 216.672 316.966 216.216 317.179 215.858C317.392 215.5 317.68 215.217 318.042 215.008C318.404 214.799 318.809 214.641 319.257 214.535C319.704 214.428 320.16 214.347 320.625 214.292C321.213 214.224 321.69 214.168 322.056 214.126C322.423 214.079 322.689 214.004 322.855 213.902C323.022 213.8 323.105 213.634 323.105 213.403V213.359C323.105 212.8 322.947 212.368 322.632 212.061C322.321 211.754 321.856 211.601 321.238 211.601C320.595 211.601 320.088 211.744 319.717 212.029C319.35 212.31 319.097 212.624 318.956 212.969L317.16 212.56C317.373 211.963 317.684 211.482 318.093 211.115C318.507 210.744 318.982 210.476 319.519 210.31C320.056 210.139 320.62 210.054 321.213 210.054C321.605 210.054 322.02 210.101 322.459 210.195C322.902 210.284 323.316 210.45 323.699 210.693C324.087 210.936 324.404 211.283 324.652 211.735C324.899 212.183 325.022 212.764 325.022 213.48V220H323.156V218.658H323.079C322.956 218.905 322.77 219.148 322.523 219.386C322.276 219.625 321.958 219.823 321.571 219.981C321.183 220.138 320.718 220.217 320.177 220.217ZM320.593 218.683C321.121 218.683 321.573 218.579 321.948 218.37C322.327 218.161 322.615 217.888 322.811 217.552C323.011 217.211 323.111 216.847 323.111 216.459V215.193C323.043 215.261 322.911 215.325 322.715 215.385C322.523 215.44 322.304 215.489 322.056 215.532C321.809 215.57 321.569 215.607 321.334 215.641C321.1 215.67 320.904 215.696 320.746 215.717C320.375 215.764 320.037 215.843 319.73 215.954C319.427 216.065 319.184 216.224 319.001 216.433C318.822 216.638 318.733 216.911 318.733 217.251C318.733 217.724 318.907 218.082 319.257 218.325C319.606 218.564 320.051 218.683 320.593 218.683ZM333.591 220H331.494L336.205 206.909H338.487L343.198 220H341.102L337.401 209.287H337.298L333.591 220ZM333.942 214.874H340.744V216.536H333.942V214.874ZM344.935 223.682V210.182H346.802V211.773H346.961C347.072 211.569 347.232 211.332 347.441 211.064C347.65 210.795 347.939 210.561 348.31 210.361C348.681 210.156 349.171 210.054 349.78 210.054C350.573 210.054 351.28 210.254 351.903 210.655C352.525 211.055 353.013 211.633 353.366 212.387C353.724 213.141 353.903 214.049 353.903 215.11C353.903 216.171 353.726 217.081 353.373 217.839C353.019 218.594 352.533 219.175 351.915 219.585C351.297 219.989 350.592 220.192 349.8 220.192C349.203 220.192 348.715 220.092 348.336 219.891C347.961 219.691 347.667 219.457 347.454 219.188C347.241 218.92 347.077 218.681 346.961 218.472H346.846V223.682H344.935ZM346.808 215.091C346.808 215.781 346.908 216.386 347.108 216.906C347.309 217.426 347.599 217.833 347.978 218.127C348.357 218.417 348.822 218.562 349.371 218.562C349.942 218.562 350.42 218.411 350.803 218.108C351.187 217.801 351.476 217.386 351.672 216.862C351.873 216.337 351.973 215.747 351.973 215.091C351.973 214.443 351.875 213.862 351.679 213.346C351.487 212.83 351.197 212.423 350.809 212.125C350.426 211.827 349.947 211.678 349.371 211.678C348.817 211.678 348.349 211.82 347.965 212.106C347.586 212.391 347.298 212.79 347.102 213.301C346.906 213.812 346.808 214.409 346.808 215.091ZM356.045 220V210.182H357.892V211.741H357.994C358.173 211.213 358.488 210.798 358.94 210.495C359.396 210.188 359.912 210.035 360.487 210.035C360.606 210.035 360.747 210.039 360.909 210.048C361.075 210.056 361.205 210.067 361.299 210.08V211.908C361.222 211.886 361.086 211.863 360.89 211.837C360.694 211.808 360.498 211.793 360.302 211.793C359.85 211.793 359.447 211.888 359.094 212.08C358.744 212.268 358.467 212.53 358.263 212.866C358.058 213.199 357.956 213.578 357.956 214.004V220H356.045ZM362.953 220V210.182H364.864V220H362.953ZM363.918 208.667C363.586 208.667 363.3 208.556 363.061 208.335C362.827 208.109 362.71 207.84 362.71 207.529C362.71 207.214 362.827 206.945 363.061 206.724C363.3 206.498 363.586 206.385 363.918 206.385C364.25 206.385 364.534 206.498 364.768 206.724C365.007 206.945 365.126 207.214 365.126 207.529C365.126 207.84 365.007 208.109 364.768 208.335C364.534 208.556 364.25 208.667 363.918 208.667ZM369.346 206.909V220H367.435V206.909H369.346ZM373.829 206.909V220H371.918V206.909H373.829ZM376.4 220V210.182H378.311V220H376.4ZM377.365 208.667C377.033 208.667 376.747 208.556 376.509 208.335C376.274 208.109 376.157 207.84 376.157 207.529C376.157 207.214 376.274 206.945 376.509 206.724C376.747 206.498 377.033 206.385 377.365 206.385C377.698 206.385 377.981 206.498 378.215 206.724C378.454 206.945 378.573 207.214 378.573 207.529C378.573 207.84 378.454 208.109 378.215 208.335C377.981 208.556 377.698 208.667 377.365 208.667ZM383.74 220.217C383.118 220.217 382.555 220.102 382.052 219.872C381.549 219.638 381.151 219.299 380.857 218.856C380.567 218.413 380.422 217.869 380.422 217.226C380.422 216.672 380.529 216.216 380.742 215.858C380.955 215.5 381.243 215.217 381.605 215.008C381.967 214.799 382.372 214.641 382.819 214.535C383.267 214.428 383.723 214.347 384.187 214.292C384.775 214.224 385.252 214.168 385.619 214.126C385.985 214.079 386.252 214.004 386.418 213.902C386.584 213.8 386.667 213.634 386.667 213.403V213.359C386.667 212.8 386.51 212.368 386.194 212.061C385.883 211.754 385.419 211.601 384.801 211.601C384.157 211.601 383.65 211.744 383.279 212.029C382.913 212.31 382.659 212.624 382.519 212.969L380.723 212.56C380.936 211.963 381.247 211.482 381.656 211.115C382.069 210.744 382.544 210.476 383.081 210.31C383.618 210.139 384.183 210.054 384.775 210.054C385.167 210.054 385.583 210.101 386.022 210.195C386.465 210.284 386.878 210.45 387.262 210.693C387.65 210.936 387.967 211.283 388.214 211.735C388.461 212.183 388.585 212.764 388.585 213.48V220H386.718V218.658H386.642C386.518 218.905 386.333 219.148 386.086 219.386C385.838 219.625 385.521 219.823 385.133 219.981C384.745 220.138 384.281 220.217 383.74 220.217ZM384.155 218.683C384.684 218.683 385.135 218.579 385.51 218.37C385.89 218.161 386.177 217.888 386.373 217.552C386.574 217.211 386.674 216.847 386.674 216.459V215.193C386.605 215.261 386.473 215.325 386.277 215.385C386.086 215.44 385.866 215.489 385.619 215.532C385.372 215.57 385.131 215.607 384.897 215.641C384.662 215.67 384.466 215.696 384.309 215.717C383.938 215.764 383.599 215.843 383.292 215.954C382.99 216.065 382.747 216.224 382.564 216.433C382.385 216.638 382.295 216.911 382.295 217.251C382.295 217.724 382.47 218.082 382.819 218.325C383.169 218.564 383.614 218.683 384.155 218.683ZM397.153 220H395.057L399.768 206.909H402.05L406.761 220H404.664L400.963 209.287H400.861L397.153 220ZM397.505 214.874H404.306V216.536H397.505V214.874ZM408.293 220V218.69L413.611 211.933V211.844H408.466V210.182H415.996V211.575L410.882 218.249V218.338H416.175V220H408.293ZM418.225 220V218.69L423.543 211.933V211.844H418.397V210.182H425.927V211.575L420.814 218.249V218.338H426.106V220H418.225ZM431.218 220.217C430.596 220.217 430.034 220.102 429.531 219.872C429.028 219.638 428.629 219.299 428.335 218.856C428.046 218.413 427.901 217.869 427.901 217.226C427.901 216.672 428.007 216.216 428.22 215.858C428.433 215.5 428.721 215.217 429.083 215.008C429.445 214.799 429.85 214.641 430.298 214.535C430.745 214.428 431.201 214.347 431.666 214.292C432.254 214.224 432.731 214.168 433.097 214.126C433.464 214.079 433.73 214.004 433.896 213.902C434.063 213.8 434.146 213.634 434.146 213.403V213.359C434.146 212.8 433.988 212.368 433.673 212.061C433.362 211.754 432.897 211.601 432.279 211.601C431.636 211.601 431.129 211.744 430.758 212.029C430.392 212.31 430.138 212.624 429.997 212.969L428.201 212.56C428.414 211.963 428.725 211.482 429.134 211.115C429.548 210.744 430.023 210.476 430.56 210.31C431.097 210.139 431.661 210.054 432.254 210.054C432.646 210.054 433.061 210.101 433.5 210.195C433.943 210.284 434.357 210.45 434.74 210.693C435.128 210.936 435.445 211.283 435.693 211.735C435.94 212.183 436.063 212.764 436.063 213.48V220H434.197V218.658H434.12C433.997 218.905 433.811 219.148 433.564 219.386C433.317 219.625 432.999 219.823 432.612 219.981C432.224 220.138 431.759 220.217 431.218 220.217ZM431.634 218.683C432.162 218.683 432.614 218.579 432.989 218.37C433.368 218.161 433.656 217.888 433.852 217.552C434.052 217.211 434.152 216.847 434.152 216.459V215.193C434.084 215.261 433.952 215.325 433.756 215.385C433.564 215.44 433.345 215.489 433.097 215.532C432.85 215.57 432.61 215.607 432.375 215.641C432.141 215.67 431.945 215.696 431.787 215.717C431.416 215.764 431.078 215.843 430.771 215.954C430.468 216.065 430.225 216.224 430.042 216.433C429.863 216.638 429.774 216.911 429.774 217.251C429.774 217.724 429.948 218.082 430.298 218.325C430.647 218.564 431.093 218.683 431.634 218.683ZM440.52 214.17V220H438.609V206.909H440.495V211.78H440.616C440.846 211.251 441.198 210.832 441.671 210.521C442.144 210.21 442.762 210.054 443.525 210.054C444.198 210.054 444.786 210.192 445.289 210.469C445.796 210.746 446.188 211.16 446.465 211.71C446.746 212.255 446.887 212.937 446.887 213.755V220H444.975V213.985C444.975 213.265 444.79 212.707 444.419 212.31C444.049 211.91 443.533 211.71 442.873 211.71C442.421 211.71 442.016 211.805 441.658 211.997C441.304 212.189 441.025 212.47 440.821 212.841C440.62 213.207 440.52 213.651 440.52 214.17ZM449.437 220V210.182H451.284V211.741H451.387C451.566 211.213 451.881 210.798 452.333 210.495C452.789 210.188 453.304 210.035 453.88 210.035C453.999 210.035 454.14 210.039 454.301 210.048C454.468 210.056 454.598 210.067 454.691 210.08V211.908C454.615 211.886 454.478 211.863 454.282 211.837C454.086 211.808 453.89 211.793 453.694 211.793C453.243 211.793 452.84 211.888 452.486 212.08C452.137 212.268 451.86 212.53 451.655 212.866C451.451 213.199 451.348 213.578 451.348 214.004V220H449.437ZM459.115 220.217C458.493 220.217 457.93 220.102 457.427 219.872C456.924 219.638 456.526 219.299 456.232 218.856C455.942 218.413 455.797 217.869 455.797 217.226C455.797 216.672 455.904 216.216 456.117 215.858C456.33 215.5 456.618 215.217 456.98 215.008C457.342 214.799 457.747 214.641 458.194 214.535C458.642 214.428 459.098 214.347 459.562 214.292C460.15 214.224 460.627 214.168 460.994 214.126C461.36 214.079 461.627 214.004 461.793 213.902C461.959 213.8 462.042 213.634 462.042 213.403V213.359C462.042 212.8 461.885 212.368 461.569 212.061C461.258 211.754 460.794 211.601 460.176 211.601C459.532 211.601 459.025 211.744 458.654 212.029C458.288 212.31 458.034 212.624 457.894 212.969L456.098 212.56C456.311 211.963 456.622 211.482 457.031 211.115C457.444 210.744 457.919 210.476 458.456 210.31C458.993 210.139 459.558 210.054 460.15 210.054C460.542 210.054 460.958 210.101 461.397 210.195C461.84 210.284 462.253 210.45 462.637 210.693C463.025 210.936 463.342 211.283 463.589 211.735C463.836 212.183 463.96 212.764 463.96 213.48V220H462.093V218.658H462.017C461.893 218.905 461.708 219.148 461.461 219.386C461.213 219.625 460.896 219.823 460.508 219.981C460.12 220.138 459.656 220.217 459.115 220.217ZM459.53 218.683C460.059 218.683 460.51 218.579 460.885 218.37C461.265 218.161 461.552 217.888 461.748 217.552C461.949 217.211 462.049 216.847 462.049 216.459V215.193C461.98 215.261 461.848 215.325 461.652 215.385C461.461 215.44 461.241 215.489 460.994 215.532C460.747 215.57 460.506 215.607 460.272 215.641C460.037 215.67 459.841 215.696 459.684 215.717C459.313 215.764 458.974 215.843 458.667 215.954C458.365 216.065 458.122 216.224 457.939 216.433C457.76 216.638 457.67 216.911 457.67 217.251C457.67 217.724 457.845 218.082 458.194 218.325C458.544 218.564 458.989 218.683 459.53 218.683Z" fill="white"/>
<rect y="196" width="211" height="36" rx="5" fill="#F49D03" fill-opacity="0.8"/>
<path d="M31.544 220H29.4474L34.1584 206.909H36.4403L41.1513 220H39.0547L35.3537 209.287H35.2514L31.544 220ZM31.8956 214.874H38.6967V216.536H31.8956V214.874ZM46.4055 220.192C45.6129 220.192 44.9055 219.989 44.2834 219.585C43.6655 219.175 43.1797 218.594 42.826 217.839C42.4766 217.081 42.3018 216.171 42.3018 215.11C42.3018 214.049 42.4787 213.141 42.8324 212.387C43.1903 211.633 43.6804 211.055 44.3026 210.655C44.9247 210.254 45.63 210.054 46.4183 210.054C47.0277 210.054 47.5178 210.156 47.8885 210.361C48.2635 210.561 48.5533 210.795 48.7578 211.064C48.9666 211.332 49.1286 211.569 49.2436 211.773H49.3587V206.909H51.2699V220H49.4034V218.472H49.2436C49.1286 218.681 48.9624 218.92 48.745 219.188C48.532 219.457 48.2379 219.691 47.8629 219.891C47.4879 220.092 47.0021 220.192 46.4055 220.192ZM46.8274 218.562C47.3771 218.562 47.8416 218.417 48.2209 218.127C48.6044 217.833 48.8942 217.426 49.0902 216.906C49.2905 216.386 49.3906 215.781 49.3906 215.091C49.3906 214.409 49.2926 213.812 49.0966 213.301C48.9006 212.79 48.6129 212.391 48.2337 212.106C47.8544 211.82 47.3857 211.678 46.8274 211.678C46.2521 211.678 45.7727 211.827 45.3892 212.125C45.0057 212.423 44.7159 212.83 44.5199 213.346C44.3281 213.862 44.2322 214.443 44.2322 215.091C44.2322 215.747 44.3303 216.337 44.5263 216.862C44.7223 217.386 45.0121 217.801 45.3956 218.108C45.7834 218.411 46.2607 218.562 46.8274 218.562ZM58.2292 220.198C57.2619 220.198 56.4288 219.991 55.7299 219.578C55.0353 219.161 54.4984 218.575 54.1191 217.82C53.7441 217.062 53.5566 216.173 53.5566 215.155C53.5566 214.149 53.7441 213.263 54.1191 212.496C54.4984 211.729 55.0268 211.13 55.7044 210.7C56.3862 210.269 57.1831 210.054 58.095 210.054C58.649 210.054 59.1859 210.146 59.7058 210.329C60.2257 210.512 60.6923 210.8 61.1056 211.192C61.519 211.584 61.845 212.093 62.0836 212.719C62.3223 213.342 62.4416 214.098 62.4416 214.989V215.666H54.6369V214.234H60.5687C60.5687 213.732 60.4664 213.286 60.2619 212.898C60.0574 212.506 59.7697 212.197 59.399 211.972C59.0325 211.746 58.6021 211.633 58.1078 211.633C57.5708 211.633 57.1021 211.765 56.7015 212.029C56.3052 212.289 55.9984 212.63 55.7811 213.052C55.568 213.469 55.4615 213.923 55.4615 214.413V215.532C55.4615 216.188 55.5765 216.746 55.8066 217.207C56.041 217.667 56.367 218.018 56.7846 218.261C57.2022 218.5 57.6902 218.619 58.2484 218.619C58.6106 218.619 58.9409 218.568 59.2392 218.466C59.5375 218.359 59.7953 218.202 60.0126 217.993C60.2299 217.784 60.3961 217.526 60.5112 217.219L62.3201 217.545C62.1752 218.078 61.9153 218.545 61.5403 218.945C61.1696 219.342 60.7029 219.651 60.1404 219.872C59.5822 220.089 58.9451 220.198 58.2292 220.198ZM70.585 220H68.4885L73.1994 206.909H75.4814L80.1923 220H78.0957L74.3947 209.287H74.2924L70.585 220ZM70.9366 214.874H77.7377V216.536H70.9366V214.874ZM88.1488 215.928V210.182H90.0664V220H88.1871V218.3H88.0849C87.859 218.824 87.4968 219.261 86.9982 219.61C86.5039 219.955 85.8881 220.128 85.1509 220.128C84.5202 220.128 83.962 219.989 83.4762 219.712C82.9947 219.431 82.6154 219.016 82.3384 218.466C82.0657 217.916 81.9293 217.237 81.9293 216.427V210.182H83.8406V216.197C83.8406 216.866 84.0259 217.398 84.3967 217.795C84.7674 218.191 85.2489 218.389 85.8413 218.389C86.1992 218.389 86.555 218.3 86.9087 218.121C87.2667 217.942 87.5629 217.671 87.7972 217.309C88.0359 216.947 88.1531 216.487 88.1488 215.928ZM94.5456 206.909V220H92.6344V206.909H94.5456ZM97.1168 220V210.182H99.0281V220H97.1168ZM98.082 208.667C97.7496 208.667 97.4641 208.556 97.2255 208.335C96.9911 208.109 96.8739 207.84 96.8739 207.529C96.8739 207.214 96.9911 206.945 97.2255 206.724C97.4641 206.498 97.7496 206.385 98.082 206.385C98.4144 206.385 98.6978 206.498 98.9322 206.724C99.1708 206.945 99.2901 207.214 99.2901 207.529C99.2901 207.84 99.1708 208.109 98.9322 208.335C98.6978 208.556 98.4144 208.667 98.082 208.667ZM104.456 220.217C103.834 220.217 103.272 220.102 102.769 219.872C102.266 219.638 101.868 219.299 101.574 218.856C101.284 218.413 101.139 217.869 101.139 217.226C101.139 216.672 101.246 216.216 101.459 215.858C101.672 215.5 101.959 215.217 102.322 215.008C102.684 214.799 103.089 214.641 103.536 214.535C103.983 214.428 104.439 214.347 104.904 214.292C105.492 214.224 105.969 214.168 106.336 214.126C106.702 214.079 106.969 214.004 107.135 213.902C107.301 213.8 107.384 213.634 107.384 213.403V213.359C107.384 212.8 107.226 212.368 106.911 212.061C106.6 211.754 106.135 211.601 105.518 211.601C104.874 211.601 104.367 211.744 103.996 212.029C103.63 212.31 103.376 212.624 103.236 212.969L101.439 212.56C101.653 211.963 101.964 211.482 102.373 211.115C102.786 210.744 103.261 210.476 103.798 210.31C104.335 210.139 104.9 210.054 105.492 210.054C105.884 210.054 106.3 210.101 106.738 210.195C107.182 210.284 107.595 210.45 107.979 210.693C108.366 210.936 108.684 211.283 108.931 211.735C109.178 212.183 109.302 212.764 109.302 213.48V220H107.435V218.658H107.358C107.235 218.905 107.05 219.148 106.802 219.386C106.555 219.625 106.238 219.823 105.85 219.981C105.462 220.138 104.998 220.217 104.456 220.217ZM104.872 218.683C105.4 218.683 105.852 218.579 106.227 218.37C106.606 218.161 106.894 217.888 107.09 217.552C107.29 217.211 107.39 216.847 107.39 216.459V215.193C107.322 215.261 107.19 215.325 106.994 215.385C106.802 215.44 106.583 215.489 106.336 215.532C106.089 215.57 105.848 215.607 105.613 215.641C105.379 215.67 105.183 215.696 105.025 215.717C104.655 215.764 104.316 215.843 104.009 215.954C103.706 216.065 103.464 216.224 103.28 216.433C103.101 216.638 103.012 216.911 103.012 217.251C103.012 217.724 103.187 218.082 103.536 218.325C103.885 218.564 104.331 218.683 104.872 218.683ZM121.002 220H116.764V206.909H121.137C122.419 206.909 123.521 207.171 124.441 207.695C125.362 208.215 126.067 208.963 126.557 209.939C127.051 210.911 127.298 212.076 127.298 213.435C127.298 214.799 127.049 215.971 126.551 216.951C126.056 217.931 125.34 218.685 124.403 219.214C123.465 219.738 122.332 220 121.002 220ZM118.74 218.274H120.894C121.891 218.274 122.72 218.087 123.38 217.712C124.041 217.332 124.535 216.785 124.863 216.069C125.191 215.349 125.355 214.471 125.355 213.435C125.355 212.408 125.191 211.537 124.863 210.821C124.539 210.105 124.056 209.562 123.412 209.191C122.769 208.82 121.97 208.635 121.015 208.635H118.74V218.274ZM131.512 214.17V220H129.601V206.909H131.487V211.78H131.608C131.838 211.251 132.19 210.832 132.663 210.521C133.136 210.21 133.754 210.054 134.517 210.054C135.19 210.054 135.778 210.192 136.281 210.469C136.788 210.746 137.18 211.16 137.457 211.71C137.738 212.255 137.879 212.937 137.879 213.755V220H135.968V213.985C135.968 213.265 135.782 212.707 135.412 212.31C135.041 211.91 134.525 211.71 133.865 211.71C133.413 211.71 133.008 211.805 132.65 211.997C132.297 212.189 132.017 212.47 131.813 212.841C131.613 213.207 131.512 213.651 131.512 214.17ZM143.287 220.217C142.664 220.217 142.102 220.102 141.599 219.872C141.096 219.638 140.698 219.299 140.404 218.856C140.114 218.413 139.969 217.869 139.969 217.226C139.969 216.672 140.076 216.216 140.289 215.858C140.502 215.5 140.789 215.217 141.152 215.008C141.514 214.799 141.919 214.641 142.366 214.535C142.814 214.428 143.27 214.347 143.734 214.292C144.322 214.224 144.799 214.168 145.166 214.126C145.532 214.079 145.799 214.004 145.965 213.902C146.131 213.8 146.214 213.634 146.214 213.403V213.359C146.214 212.8 146.056 212.368 145.741 212.061C145.43 211.754 144.966 211.601 144.348 211.601C143.704 211.601 143.197 211.744 142.826 212.029C142.46 212.31 142.206 212.624 142.066 212.969L140.27 212.56C140.483 211.963 140.794 211.482 141.203 211.115C141.616 210.744 142.091 210.476 142.628 210.31C143.165 210.139 143.73 210.054 144.322 210.054C144.714 210.054 145.13 210.101 145.569 210.195C146.012 210.284 146.425 210.45 146.809 210.693C147.196 210.936 147.514 211.283 147.761 211.735C148.008 212.183 148.132 212.764 148.132 213.48V220H146.265V218.658H146.189C146.065 218.905 145.88 219.148 145.632 219.386C145.385 219.625 145.068 219.823 144.68 219.981C144.292 220.138 143.828 220.217 143.287 220.217ZM143.702 218.683C144.23 218.683 144.682 218.579 145.057 218.37C145.436 218.161 145.724 217.888 145.92 217.552C146.12 217.211 146.221 216.847 146.221 216.459V215.193C146.152 215.261 146.02 215.325 145.824 215.385C145.632 215.44 145.413 215.489 145.166 215.532C144.919 215.57 144.678 215.607 144.444 215.641C144.209 215.67 144.013 215.696 143.855 215.717C143.485 215.764 143.146 215.843 142.839 215.954C142.537 216.065 142.294 216.224 142.11 216.433C141.931 216.638 141.842 216.911 141.842 217.251C141.842 217.724 142.017 218.082 142.366 218.325C142.716 218.564 143.161 218.683 143.702 218.683ZM150.677 220V210.182H152.525V211.741H152.627C152.806 211.213 153.121 210.798 153.573 210.495C154.029 210.188 154.545 210.035 155.12 210.035C155.239 210.035 155.38 210.039 155.542 210.048C155.708 210.056 155.838 210.067 155.932 210.08V211.908C155.855 211.886 155.719 211.863 155.523 211.837C155.327 211.808 155.131 211.793 154.934 211.793C154.483 211.793 154.08 211.888 153.726 212.08C153.377 212.268 153.1 212.53 152.895 212.866C152.691 213.199 152.589 213.578 152.589 214.004V220H150.677ZM157.586 220V210.182H159.42V211.78H159.542C159.746 211.239 160.081 210.817 160.545 210.514C161.01 210.207 161.566 210.054 162.213 210.054C162.87 210.054 163.419 210.207 163.863 210.514C164.31 210.821 164.64 211.243 164.853 211.78H164.956C165.19 211.256 165.563 210.838 166.074 210.527C166.586 210.212 167.195 210.054 167.902 210.054C168.793 210.054 169.52 210.333 170.082 210.891C170.649 211.45 170.932 212.291 170.932 213.416V220H169.021V213.595C169.021 212.93 168.84 212.449 168.478 212.151C168.115 211.852 167.683 211.703 167.18 211.703C166.558 211.703 166.074 211.895 165.729 212.278C165.384 212.658 165.211 213.146 165.211 213.742V220H163.306V213.474C163.306 212.941 163.14 212.513 162.808 212.189C162.475 211.865 162.043 211.703 161.51 211.703C161.148 211.703 160.814 211.799 160.507 211.991C160.204 212.178 159.959 212.44 159.772 212.777C159.588 213.114 159.497 213.504 159.497 213.947V220H157.586ZM176.351 220.217C175.729 220.217 175.166 220.102 174.664 219.872C174.161 219.638 173.762 219.299 173.468 218.856C173.178 218.413 173.034 217.869 173.034 217.226C173.034 216.672 173.14 216.216 173.353 215.858C173.566 215.5 173.854 215.217 174.216 215.008C174.578 214.799 174.983 214.641 175.431 214.535C175.878 214.428 176.334 214.347 176.798 214.292C177.387 214.224 177.864 214.168 178.23 214.126C178.597 214.079 178.863 214.004 179.029 213.902C179.195 213.8 179.279 213.634 179.279 213.403V213.359C179.279 212.8 179.121 212.368 178.806 212.061C178.494 211.754 178.03 211.601 177.412 211.601C176.769 211.601 176.262 211.744 175.891 212.029C175.524 212.31 175.271 212.624 175.13 212.969L173.334 212.56C173.547 211.963 173.858 211.482 174.267 211.115C174.681 210.744 175.156 210.476 175.693 210.31C176.23 210.139 176.794 210.054 177.387 210.054C177.779 210.054 178.194 210.101 178.633 210.195C179.076 210.284 179.49 210.45 179.873 210.693C180.261 210.936 180.578 211.283 180.825 211.735C181.073 212.183 181.196 212.764 181.196 213.48V220H179.33V218.658H179.253C179.129 218.905 178.944 219.148 178.697 219.386C178.45 219.625 178.132 219.823 177.744 219.981C177.357 220.138 176.892 220.217 176.351 220.217ZM176.767 218.683C177.295 218.683 177.747 218.579 178.122 218.37C178.501 218.161 178.789 217.888 178.985 217.552C179.185 217.211 179.285 216.847 179.285 216.459V215.193C179.217 215.261 179.085 215.325 178.889 215.385C178.697 215.44 178.477 215.489 178.23 215.532C177.983 215.57 177.742 215.607 177.508 215.641C177.274 215.67 177.078 215.696 176.92 215.717C176.549 215.764 176.21 215.843 175.904 215.954C175.601 216.065 175.358 216.224 175.175 216.433C174.996 216.638 174.906 216.911 174.906 217.251C174.906 217.724 175.081 218.082 175.431 218.325C175.78 218.564 176.225 218.683 176.767 218.683Z" fill="white"/>
<rect x="587" y="193" width="211" height="36" rx="5" fill="#F49D03" fill-opacity="0.8"/>
<path d="M621.438 217V203.909H626.104C627.119 203.909 627.96 204.084 628.629 204.433C629.303 204.783 629.805 205.266 630.138 205.884C630.47 206.498 630.636 207.207 630.636 208.013C630.636 208.814 630.468 209.519 630.131 210.129C629.799 210.734 629.296 211.205 628.623 211.541C627.954 211.878 627.112 212.046 626.098 212.046H622.563V210.346H625.919C626.558 210.346 627.078 210.254 627.479 210.071C627.884 209.888 628.18 209.621 628.367 209.272C628.555 208.923 628.648 208.503 628.648 208.013C628.648 207.518 628.553 207.09 628.361 206.728C628.173 206.366 627.877 206.089 627.472 205.897C627.072 205.701 626.545 205.603 625.893 205.603H623.413V217H621.438ZM627.901 211.094L631.135 217H628.885L625.714 211.094H627.901ZM636.995 217.198C636.028 217.198 635.194 216.991 634.496 216.578C633.801 216.161 633.264 215.575 632.885 214.82C632.51 214.062 632.322 213.173 632.322 212.155C632.322 211.149 632.51 210.263 632.885 209.496C633.264 208.729 633.792 208.13 634.47 207.7C635.152 207.269 635.949 207.054 636.861 207.054C637.415 207.054 637.952 207.146 638.471 207.329C638.991 207.512 639.458 207.8 639.871 208.192C640.285 208.584 640.611 209.093 640.849 209.719C641.088 210.342 641.207 211.098 641.207 211.989V212.666H633.403V211.234H639.334C639.334 210.732 639.232 210.286 639.028 209.898C638.823 209.506 638.535 209.197 638.165 208.972C637.798 208.746 637.368 208.633 636.873 208.633C636.336 208.633 635.868 208.765 635.467 209.029C635.071 209.289 634.764 209.63 634.547 210.052C634.334 210.469 634.227 210.923 634.227 211.413V212.532C634.227 213.188 634.342 213.746 634.572 214.207C634.807 214.667 635.133 215.018 635.55 215.261C635.968 215.5 636.456 215.619 637.014 215.619C637.376 215.619 637.706 215.568 638.005 215.466C638.303 215.359 638.561 215.202 638.778 214.993C638.996 214.784 639.162 214.526 639.277 214.219L641.086 214.545C640.941 215.078 640.681 215.545 640.306 215.945C639.935 216.342 639.469 216.651 638.906 216.872C638.348 217.089 637.711 217.198 636.995 217.198ZM644.255 220.682C643.969 220.682 643.709 220.658 643.475 220.612C643.24 220.569 643.066 220.522 642.951 220.471L643.411 218.905C643.76 218.999 644.071 219.039 644.344 219.026C644.617 219.013 644.858 218.911 645.066 218.719C645.279 218.528 645.467 218.214 645.629 217.78L645.865 217.128L642.273 207.182H644.319L646.805 214.801H646.907L649.394 207.182H651.446L647.4 218.31C647.212 218.822 646.973 219.254 646.684 219.608C646.394 219.966 646.049 220.234 645.648 220.413C645.248 220.592 644.783 220.682 644.255 220.682ZM661.641 207.182L658.081 217H656.035L652.468 207.182H654.52L657.007 214.737H657.109L659.589 207.182H661.641ZM666.013 217.217C665.391 217.217 664.828 217.102 664.326 216.872C663.823 216.638 663.424 216.299 663.13 215.856C662.841 215.413 662.696 214.869 662.696 214.226C662.696 213.672 662.802 213.216 663.015 212.858C663.228 212.5 663.516 212.217 663.878 212.008C664.24 211.799 664.645 211.641 665.093 211.535C665.54 211.428 665.996 211.347 666.461 211.292C667.049 211.224 667.526 211.168 667.892 211.126C668.259 211.079 668.525 211.004 668.691 210.902C668.858 210.8 668.941 210.634 668.941 210.403V210.359C668.941 209.8 668.783 209.368 668.468 209.061C668.157 208.754 667.692 208.601 667.074 208.601C666.431 208.601 665.924 208.744 665.553 209.029C665.186 209.31 664.933 209.624 664.792 209.969L662.996 209.56C663.209 208.963 663.52 208.482 663.929 208.115C664.343 207.744 664.818 207.476 665.355 207.31C665.892 207.139 666.456 207.054 667.049 207.054C667.441 207.054 667.856 207.101 668.295 207.195C668.738 207.284 669.152 207.45 669.535 207.693C669.923 207.936 670.24 208.283 670.488 208.735C670.735 209.183 670.858 209.764 670.858 210.48V217H668.992V215.658H668.915C668.792 215.905 668.606 216.148 668.359 216.386C668.112 216.625 667.794 216.823 667.407 216.981C667.019 217.138 666.554 217.217 666.013 217.217ZM666.429 215.683C666.957 215.683 667.409 215.579 667.784 215.37C668.163 215.161 668.451 214.888 668.647 214.552C668.847 214.211 668.947 213.847 668.947 213.459V212.193C668.879 212.261 668.747 212.325 668.551 212.385C668.359 212.44 668.14 212.489 667.892 212.532C667.645 212.57 667.404 212.607 667.17 212.641C666.936 212.67 666.74 212.696 666.582 212.717C666.211 212.764 665.873 212.843 665.566 212.954C665.263 213.065 665.02 213.224 664.837 213.433C664.658 213.638 664.569 213.911 664.569 214.251C664.569 214.724 664.743 215.082 665.093 215.325C665.442 215.564 665.887 215.683 666.429 215.683ZM678.321 217V203.909H682.987C684.001 203.909 684.843 204.084 685.512 204.433C686.185 204.783 686.688 205.266 687.021 205.884C687.353 206.498 687.519 207.207 687.519 208.013C687.519 208.814 687.351 209.519 687.014 210.129C686.682 210.734 686.179 211.205 685.506 211.541C684.837 211.878 683.995 212.046 682.981 212.046H679.446V210.346H682.802C683.441 210.346 683.961 210.254 684.362 210.071C684.766 209.888 685.062 209.621 685.25 209.272C685.438 208.923 685.531 208.503 685.531 208.013C685.531 207.518 685.435 207.09 685.244 206.728C685.056 206.366 684.76 206.089 684.355 205.897C683.955 205.701 683.428 205.603 682.776 205.603H680.296V217H678.321ZM684.783 211.094L688.018 217H685.768L682.597 211.094H684.783ZM690.977 220.682C690.692 220.682 690.432 220.658 690.197 220.612C689.963 220.569 689.788 220.522 689.673 220.471L690.134 218.905C690.483 218.999 690.794 219.039 691.067 219.026C691.339 219.013 691.58 218.911 691.789 218.719C692.002 218.528 692.19 218.214 692.352 217.78L692.588 217.128L688.996 207.182H691.041L693.528 214.801H693.63L696.116 207.182H698.168L694.122 218.31C693.935 218.822 693.696 219.254 693.406 219.608C693.116 219.966 692.771 220.234 692.371 220.413C691.97 220.592 691.506 220.682 690.977 220.682ZM703.766 217.198C702.846 217.198 702.042 216.987 701.356 216.565C700.67 216.143 700.138 215.553 699.758 214.795C699.379 214.036 699.189 213.15 699.189 212.136C699.189 211.117 699.379 210.227 699.758 209.464C700.138 208.701 700.67 208.109 701.356 207.687C702.042 207.265 702.846 207.054 703.766 207.054C704.687 207.054 705.49 207.265 706.176 207.687C706.862 208.109 707.395 208.701 707.774 209.464C708.153 210.227 708.343 211.117 708.343 212.136C708.343 213.15 708.153 214.036 707.774 214.795C707.395 215.553 706.862 216.143 706.176 216.565C705.49 216.987 704.687 217.198 703.766 217.198ZM703.773 215.594C704.369 215.594 704.863 215.436 705.256 215.121C705.648 214.805 705.937 214.386 706.125 213.862C706.317 213.337 706.412 212.76 706.412 212.129C706.412 211.503 706.317 210.928 706.125 210.403C705.937 209.875 705.648 209.451 705.256 209.131C704.863 208.812 704.369 208.652 703.773 208.652C703.172 208.652 702.673 208.812 702.277 209.131C701.885 209.451 701.593 209.875 701.401 210.403C701.214 210.928 701.12 211.503 701.12 212.129C701.12 212.76 701.214 213.337 701.401 213.862C701.593 214.386 701.885 214.805 702.277 215.121C702.673 215.436 703.172 215.594 703.773 215.594ZM716.499 217H714.403L719.113 203.909H721.395L726.106 217H724.01L720.309 206.287H720.206L716.499 217ZM716.851 211.874H723.652V213.536H716.851V211.874ZM729.755 203.909V217H727.843V203.909H729.755ZM734.237 211.17V217H732.326V203.909H734.211V208.78H734.333C734.563 208.251 734.915 207.832 735.388 207.521C735.861 207.21 736.479 207.054 737.241 207.054C737.915 207.054 738.503 207.192 739.006 207.469C739.513 207.746 739.905 208.16 740.182 208.71C740.463 209.255 740.604 209.937 740.604 210.755V217H738.692V210.985C738.692 210.265 738.507 209.707 738.136 209.31C737.765 208.91 737.25 208.71 736.589 208.71C736.138 208.71 735.733 208.805 735.375 208.997C735.021 209.189 734.742 209.47 734.537 209.841C734.337 210.207 734.237 210.651 734.237 211.17ZM746.011 217.217C745.389 217.217 744.827 217.102 744.324 216.872C743.821 216.638 743.422 216.299 743.128 215.856C742.839 215.413 742.694 214.869 742.694 214.226C742.694 213.672 742.8 213.216 743.013 212.858C743.226 212.5 743.514 212.217 743.876 212.008C744.238 211.799 744.643 211.641 745.091 211.535C745.538 211.428 745.994 211.347 746.459 211.292C747.047 211.224 747.524 211.168 747.89 211.126C748.257 211.079 748.523 211.004 748.689 210.902C748.856 210.8 748.939 210.634 748.939 210.403V210.359C748.939 209.8 748.781 209.368 748.466 209.061C748.155 208.754 747.69 208.601 747.072 208.601C746.429 208.601 745.922 208.744 745.551 209.029C745.184 209.31 744.931 209.624 744.79 209.969L742.994 209.56C743.207 208.963 743.518 208.482 743.927 208.115C744.341 207.744 744.816 207.476 745.353 207.31C745.89 207.139 746.454 207.054 747.047 207.054C747.439 207.054 747.854 207.101 748.293 207.195C748.736 207.284 749.15 207.45 749.533 207.693C749.921 207.936 750.238 208.283 750.486 208.735C750.733 209.183 750.856 209.764 750.856 210.48V217H748.99V215.658H748.913C748.79 215.905 748.604 216.148 748.357 216.386C748.11 216.625 747.792 216.823 747.405 216.981C747.017 217.138 746.552 217.217 746.011 217.217ZM746.427 215.683C746.955 215.683 747.407 215.579 747.782 215.37C748.161 215.161 748.449 214.888 748.645 214.552C748.845 214.211 748.945 213.847 748.945 213.459V212.193C748.877 212.261 748.745 212.325 748.549 212.385C748.357 212.44 748.138 212.489 747.89 212.532C747.643 212.57 747.403 212.607 747.168 212.641C746.934 212.67 746.738 212.696 746.58 212.717C746.209 212.764 745.871 212.843 745.564 212.954C745.261 213.065 745.018 213.224 744.835 213.433C744.656 213.638 744.567 213.911 744.567 214.251C744.567 214.724 744.741 215.082 745.091 215.325C745.44 215.564 745.885 215.683 746.427 215.683ZM758.075 207.182V208.716H752.526V207.182H758.075ZM754.048 217V206.044C754.048 205.43 754.182 204.921 754.45 204.516C754.719 204.107 755.075 203.803 755.518 203.602C755.961 203.398 756.442 203.295 756.962 203.295C757.346 203.295 757.674 203.327 757.947 203.391C758.219 203.451 758.422 203.506 758.554 203.558L758.107 205.104C758.017 205.079 757.902 205.049 757.761 205.015C757.621 204.977 757.45 204.957 757.25 204.957C756.786 204.957 756.453 205.072 756.253 205.303C756.057 205.533 755.959 205.865 755.959 206.3V217H754.048ZM760.047 217V207.182H761.958V217H760.047ZM761.012 205.667C760.679 205.667 760.394 205.556 760.155 205.335C759.921 205.109 759.804 204.84 759.804 204.529C759.804 204.214 759.921 203.945 760.155 203.724C760.394 203.498 760.679 203.385 761.012 203.385C761.344 203.385 761.627 203.498 761.862 203.724C762.1 203.945 762.22 204.214 762.22 204.529C762.22 204.84 762.1 205.109 761.862 205.335C761.627 205.556 761.344 205.667 761.012 205.667ZM764.324 217V215.69L769.643 208.933V208.844H764.497V207.182H772.027V208.575L766.913 215.249V215.338H772.206V217H764.324Z" fill="white"/>
<rect x="587" y="39" width="222" height="41" rx="5" fill="#F49D03" fill-opacity="0.8"/>
<path d="M626.438 53.786H628.835L633.003 63.9622H633.156L637.324 53.786H639.721V66.877H637.842V57.4039H637.72L633.859 66.8578H632.3L628.439 57.3975H628.317V66.877H626.438V53.786ZM648.659 62.8052V57.0588H650.576V66.877H648.697V65.1767H648.595C648.369 65.7008 648.007 66.1376 647.508 66.487C647.014 66.8322 646.398 67.0048 645.661 67.0048C645.03 67.0048 644.472 66.8663 643.986 66.5893C643.504 66.3081 643.125 65.8926 642.848 65.3429C642.575 64.7931 642.439 64.1135 642.439 63.3038V57.0588H644.35V63.0737C644.35 63.7427 644.536 64.2754 644.906 64.6717C645.277 65.068 645.759 65.2662 646.351 65.2662C646.709 65.2662 647.065 65.1767 647.419 64.9977C647.776 64.8187 648.073 64.5481 648.307 64.1859C648.546 63.8237 648.663 63.3635 648.659 62.8052ZM655.055 61.0474V66.877H653.144V53.786H655.03V58.6568H655.151C655.381 58.1284 655.733 57.7086 656.206 57.3975C656.679 57.0865 657.297 56.9309 658.06 56.9309C658.733 56.9309 659.321 57.0694 659.824 57.3464C660.331 57.6234 660.723 58.0368 661 58.5865C661.281 59.1319 661.422 59.8137 661.422 60.6319V66.877H659.511V60.862C659.511 60.1419 659.325 59.5836 658.955 59.1873C658.584 58.7868 658.068 58.5865 657.408 58.5865C656.956 58.5865 656.551 58.6824 656.193 58.8741C655.839 59.0659 655.56 59.3471 655.356 59.7179C655.156 60.0843 655.055 60.5275 655.055 61.0474ZM666.83 67.0943C666.207 67.0943 665.645 66.9792 665.142 66.7491C664.639 66.5147 664.241 66.176 663.947 65.7328C663.657 65.2896 663.512 64.7463 663.512 64.1028C663.512 63.5488 663.619 63.0929 663.832 62.7349C664.045 62.377 664.332 62.0936 664.695 61.8848C665.057 61.676 665.462 61.5183 665.909 61.4118C666.357 61.3052 666.813 61.2243 667.277 61.1689C667.865 61.1007 668.342 61.0453 668.709 61.0027C669.075 60.9558 669.342 60.8812 669.508 60.7789C669.674 60.6767 669.757 60.5105 669.757 60.2804V60.2356C669.757 59.6774 669.599 59.2449 669.284 58.938C668.973 58.6312 668.509 58.4778 667.891 58.4778C667.247 58.4778 666.74 58.6206 666.369 58.9061C666.003 59.1873 665.749 59.5005 665.609 59.8457L663.812 59.4366C664.026 58.84 664.337 58.3585 664.746 57.992C665.159 57.6213 665.634 57.3528 666.171 57.1866C666.708 57.0162 667.273 56.9309 667.865 56.9309C668.257 56.9309 668.673 56.9778 669.112 57.0716C669.555 57.161 669.968 57.3272 670.352 57.5701C670.739 57.813 671.057 58.1603 671.304 58.612C671.551 59.0595 671.675 59.6412 671.675 60.3571V66.877H669.808V65.5346H669.732C669.608 65.7818 669.423 66.0247 669.175 66.2633C668.928 66.502 668.611 66.7001 668.223 66.8578C667.835 67.0154 667.371 67.0943 666.83 67.0943ZM667.245 65.5602C667.773 65.5602 668.225 65.4558 668.6 65.247C668.979 65.0382 669.267 64.7654 669.463 64.4288C669.663 64.0879 669.763 63.7235 669.763 63.3358V62.0701C669.695 62.1383 669.563 62.2022 669.367 62.2619C669.175 62.3173 668.956 62.3663 668.709 62.4089C668.462 62.4473 668.221 62.4835 667.987 62.5176C667.752 62.5474 667.556 62.573 667.398 62.5943C667.028 62.6412 666.689 62.72 666.382 62.8308C666.08 62.9416 665.837 63.1014 665.653 63.3102C665.474 63.5147 665.385 63.7875 665.385 64.1284C665.385 64.6014 665.56 64.9593 665.909 65.2022C666.259 65.4409 666.704 65.5602 667.245 65.5602ZM674.22 66.877V57.0588H676.055V58.6568H676.176C676.381 58.1156 676.715 57.6937 677.18 57.3912C677.644 57.0843 678.2 56.9309 678.848 56.9309C679.504 56.9309 680.054 57.0843 680.497 57.3912C680.945 57.698 681.275 58.1199 681.488 58.6568H681.59C681.825 58.1326 682.198 57.715 682.709 57.4039C683.22 57.0886 683.83 56.9309 684.537 56.9309C685.428 56.9309 686.154 57.21 686.717 57.7683C687.284 58.3265 687.567 59.1681 687.567 60.2931V66.877H685.656V60.4721C685.656 59.8074 685.475 59.3258 685.112 59.0275C684.75 58.7292 684.318 58.5801 683.815 58.5801C683.193 58.5801 682.709 58.7718 682.364 59.1554C682.019 59.5346 681.846 60.0225 681.846 60.6191V66.877H679.941V60.3507C679.941 59.818 679.775 59.3897 679.443 59.0659C679.11 58.742 678.678 58.5801 678.145 58.5801C677.783 58.5801 677.448 58.676 677.142 58.8677C676.839 59.0552 676.594 59.3173 676.406 59.6539C676.223 59.9906 676.132 60.3805 676.132 60.8237V66.877H674.22ZM690.129 66.877V57.0588H691.963V58.6568H692.085C692.289 58.1156 692.624 57.6937 693.088 57.3912C693.553 57.0843 694.109 56.9309 694.756 56.9309C695.413 56.9309 695.962 57.0843 696.406 57.3912C696.853 57.698 697.183 58.1199 697.396 58.6568H697.499C697.733 58.1326 698.106 57.715 698.617 57.4039C699.129 57.0886 699.738 56.9309 700.445 56.9309C701.336 56.9309 702.062 57.21 702.625 57.7683C703.192 58.3265 703.475 59.1681 703.475 60.2931V66.877H701.564V60.4721C701.564 59.8074 701.383 59.3258 701.021 59.0275C700.658 58.7292 700.226 58.5801 699.723 58.5801C699.101 58.5801 698.617 58.7718 698.272 59.1554C697.927 59.5346 697.754 60.0225 697.754 60.6191V66.877H695.849V60.3507C695.849 59.818 695.683 59.3897 695.351 59.0659C695.018 58.742 694.586 58.5801 694.053 58.5801C693.691 58.5801 693.357 58.676 693.05 58.8677C692.747 59.0552 692.502 59.3173 692.315 59.6539C692.131 59.9906 692.04 60.3805 692.04 60.8237V66.877H690.129ZM708.894 67.0943C708.272 67.0943 707.709 66.9792 707.206 66.7491C706.704 66.5147 706.305 66.176 706.011 65.7328C705.721 65.2896 705.577 64.7463 705.577 64.1028C705.577 63.5488 705.683 63.0929 705.896 62.7349C706.109 62.377 706.397 62.0936 706.759 61.8848C707.121 61.676 707.526 61.5183 707.974 61.4118C708.421 61.3052 708.877 61.2243 709.341 61.1689C709.93 61.1007 710.407 61.0453 710.773 61.0027C711.14 60.9558 711.406 60.8812 711.572 60.7789C711.738 60.6767 711.822 60.5105 711.822 60.2804V60.2356C711.822 59.6774 711.664 59.2449 711.349 58.938C711.037 58.6312 710.573 58.4778 709.955 58.4778C709.312 58.4778 708.805 58.6206 708.434 58.9061C708.067 59.1873 707.814 59.5005 707.673 59.8457L705.877 59.4366C706.09 58.84 706.401 58.3585 706.81 57.992C707.224 57.6213 707.699 57.3528 708.236 57.1866C708.773 57.0162 709.337 56.9309 709.93 56.9309C710.322 56.9309 710.737 56.9778 711.176 57.0716C711.619 57.161 712.032 57.3272 712.416 57.5701C712.804 57.813 713.121 58.1603 713.368 58.612C713.616 59.0595 713.739 59.6412 713.739 60.3571V66.877H711.873V65.5346H711.796C711.672 65.7818 711.487 66.0247 711.24 66.2633C710.993 66.502 710.675 66.7001 710.287 66.8578C709.9 67.0154 709.435 67.0943 708.894 67.0943ZM709.309 65.5602C709.838 65.5602 710.29 65.4558 710.665 65.247C711.044 65.0382 711.331 64.7654 711.528 64.4288C711.728 64.0879 711.828 63.7235 711.828 63.3358V62.0701C711.76 62.1383 711.628 62.2022 711.432 62.2619C711.24 62.3173 711.02 62.3663 710.773 62.4089C710.526 62.4473 710.285 62.4835 710.051 62.5176C709.817 62.5474 709.621 62.573 709.463 62.5943C709.092 62.6412 708.753 62.72 708.447 62.8308C708.144 62.9416 707.901 63.1014 707.718 63.3102C707.539 63.5147 707.449 63.7875 707.449 64.1284C707.449 64.6014 707.624 64.9593 707.974 65.2022C708.323 65.4409 708.768 65.5602 709.309 65.5602ZM719.96 67.0687C719.168 67.0687 718.46 66.8663 717.838 66.4615C717.22 66.0524 716.734 65.4707 716.381 64.7164C716.031 63.9579 715.857 63.0481 715.857 61.987C715.857 60.926 716.033 60.0183 716.387 59.264C716.745 58.5098 717.235 57.9324 717.857 57.5318C718.479 57.1312 719.185 56.9309 719.973 56.9309C720.582 56.9309 721.072 57.0332 721.443 57.2377C721.818 57.438 722.108 57.6724 722.312 57.9409C722.521 58.2093 722.683 58.4458 722.798 58.6504H722.913V53.786H724.825V66.877H722.958V65.3493H722.798C722.683 65.5581 722.517 65.7967 722.3 66.0652C722.087 66.3336 721.793 66.568 721.418 66.7683C721.043 66.9686 720.557 67.0687 719.96 67.0687ZM720.382 65.4387C720.932 65.4387 721.396 65.2939 721.776 65.0041C722.159 64.71 722.449 64.3031 722.645 63.7832C722.845 63.2633 722.945 62.6582 722.945 61.9679C722.945 61.286 722.847 60.6895 722.651 60.1781C722.455 59.6667 722.168 59.2683 721.788 58.9828C721.409 58.6973 720.94 58.5545 720.382 58.5545C719.807 58.5545 719.327 58.7037 718.944 59.002C718.56 59.3002 718.271 59.7072 718.075 60.2228C717.883 60.7385 717.787 61.3201 717.787 61.9679C717.787 62.6241 717.885 63.2143 718.081 63.7385C718.277 64.2626 718.567 64.6781 718.95 64.9849C719.338 65.2875 719.815 65.4387 720.382 65.4387ZM734.445 53.786V66.877H732.469V53.786H734.445ZM736.963 66.877V65.5666L742.281 58.8102V58.7207H737.136V57.0588H744.665V58.4522L739.552 65.1255V65.215H744.844V66.877H736.963ZM749.956 67.0943C749.334 67.0943 748.772 66.9792 748.269 66.7491C747.766 66.5147 747.368 66.176 747.074 65.7328C746.784 65.2896 746.639 64.7463 746.639 64.1028C746.639 63.5488 746.746 63.0929 746.959 62.7349C747.172 62.377 747.459 62.0936 747.822 61.8848C748.184 61.676 748.589 61.5183 749.036 61.4118C749.483 61.3052 749.939 61.2243 750.404 61.1689C750.992 61.1007 751.469 61.0453 751.836 61.0027C752.202 60.9558 752.469 60.8812 752.635 60.7789C752.801 60.6767 752.884 60.5105 752.884 60.2804V60.2356C752.884 59.6774 752.726 59.2449 752.411 58.938C752.1 58.6312 751.635 58.4778 751.018 58.4778C750.374 58.4778 749.867 58.6206 749.496 58.9061C749.13 59.1873 748.876 59.5005 748.736 59.8457L746.939 59.4366C747.153 58.84 747.464 58.3585 747.873 57.992C748.286 57.6213 748.761 57.3528 749.298 57.1866C749.835 57.0162 750.4 56.9309 750.992 56.9309C751.384 56.9309 751.8 56.9778 752.238 57.0716C752.682 57.161 753.095 57.3272 753.479 57.5701C753.866 57.813 754.184 58.1603 754.431 58.612C754.678 59.0595 754.802 59.6412 754.802 60.3571V66.877H752.935V65.5346H752.858C752.735 65.7818 752.55 66.0247 752.302 66.2633C752.055 66.502 751.738 66.7001 751.35 66.8578C750.962 67.0154 750.498 67.0943 749.956 67.0943ZM750.372 65.5602C750.9 65.5602 751.352 65.4558 751.727 65.247C752.106 65.0382 752.394 64.7654 752.59 64.4288C752.79 64.0879 752.89 63.7235 752.89 63.3358V62.0701C752.822 62.1383 752.69 62.2022 752.494 62.2619C752.302 62.3173 752.083 62.3663 751.836 62.4089C751.589 62.4473 751.348 62.4835 751.113 62.5176C750.879 62.5474 750.683 62.573 750.525 62.5943C750.155 62.6412 749.816 62.72 749.509 62.8308C749.206 62.9416 748.964 63.1014 748.78 63.3102C748.601 63.5147 748.512 63.7875 748.512 64.1284C748.512 64.6014 748.687 64.9593 749.036 65.2022C749.385 65.4409 749.831 65.5602 750.372 65.5602ZM761.93 57.0588V58.5929H756.567V57.0588H761.93ZM758.006 54.7065H759.917V63.9941C759.917 64.3649 759.972 64.644 760.083 64.8315C760.194 65.0147 760.337 65.1404 760.511 65.2086C760.69 65.2725 760.884 65.3045 761.093 65.3045C761.246 65.3045 761.381 65.2939 761.496 65.2725C761.611 65.2512 761.7 65.2342 761.764 65.2214L762.109 66.8002C761.999 66.8429 761.841 66.8855 761.636 66.9281C761.432 66.975 761.176 67.0005 760.869 67.0048C760.366 67.0133 759.898 66.9238 759.463 66.7363C759.028 66.5488 758.677 66.2591 758.408 65.867C758.14 65.475 758.006 64.9828 758.006 64.3904V54.7065Z" fill="white"/>
<rect x="853" y="194" width="211" height="36" rx="5" fill="#F49D03" fill-opacity="0.8"/>
<path d="M903.544 219H901.447L906.158 205.909H908.44L913.151 219H911.055L907.354 208.287H907.251L903.544 219ZM903.896 213.874H910.697V215.536H903.896V213.874ZM916.8 213.17V219H914.888V209.182H916.723V210.78H916.844C917.07 210.26 917.424 209.842 917.905 209.527C918.391 209.212 919.003 209.054 919.74 209.054C920.409 209.054 920.995 209.195 921.498 209.476C922.001 209.753 922.39 210.166 922.667 210.716C922.944 211.266 923.083 211.945 923.083 212.755V219H921.172V212.985C921.172 212.273 920.986 211.717 920.616 211.317C920.245 210.912 919.736 210.71 919.088 210.71C918.645 210.71 918.251 210.805 917.905 210.997C917.564 211.189 917.294 211.47 917.094 211.841C916.898 212.207 916.8 212.651 916.8 213.17ZM929.322 219.192C928.529 219.192 927.822 218.989 927.199 218.585C926.581 218.175 926.096 217.594 925.742 216.839C925.393 216.081 925.218 215.171 925.218 214.11C925.218 213.049 925.395 212.141 925.748 211.387C926.106 210.633 926.596 210.055 927.219 209.655C927.841 209.254 928.546 209.054 929.334 209.054C929.944 209.054 930.434 209.156 930.805 209.361C931.18 209.561 931.469 209.795 931.674 210.064C931.883 210.332 932.045 210.569 932.16 210.773H932.275V205.909H934.186V219H932.319V217.472H932.16C932.045 217.681 931.878 217.92 931.661 218.188C931.448 218.457 931.154 218.691 930.779 218.891C930.404 219.092 929.918 219.192 929.322 219.192ZM929.743 217.562C930.293 217.562 930.758 217.417 931.137 217.127C931.52 216.833 931.81 216.426 932.006 215.906C932.206 215.386 932.307 214.781 932.307 214.091C932.307 213.409 932.209 212.812 932.013 212.301C931.817 211.79 931.529 211.391 931.15 211.106C930.77 210.82 930.302 210.678 929.743 210.678C929.168 210.678 928.689 210.827 928.305 211.125C927.922 211.423 927.632 211.83 927.436 212.346C927.244 212.862 927.148 213.443 927.148 214.091C927.148 214.747 927.246 215.337 927.442 215.862C927.638 216.386 927.928 216.801 928.312 217.108C928.699 217.411 929.177 217.562 929.743 217.562ZM936.914 219V209.182H938.825V219H936.914ZM937.879 207.667C937.547 207.667 937.261 207.556 937.022 207.335C936.788 207.109 936.671 206.84 936.671 206.529C936.671 206.214 936.788 205.945 937.022 205.724C937.261 205.498 937.547 205.385 937.879 205.385C938.211 205.385 938.495 205.498 938.729 205.724C938.968 205.945 939.087 206.214 939.087 206.529C939.087 206.84 938.968 207.109 938.729 207.335C938.495 207.556 938.211 207.667 937.879 207.667ZM943.307 213.17V219H941.396V209.182H943.231V210.78H943.352C943.578 210.26 943.932 209.842 944.413 209.527C944.899 209.212 945.51 209.054 946.248 209.054C946.917 209.054 947.503 209.195 948.006 209.476C948.508 209.753 948.898 210.166 949.175 210.716C949.452 211.266 949.591 211.945 949.591 212.755V219H947.68V212.985C947.68 212.273 947.494 211.717 947.123 211.317C946.753 210.912 946.243 210.71 945.596 210.71C945.153 210.71 944.758 210.805 944.413 210.997C944.072 211.189 943.802 211.47 943.601 211.841C943.405 212.207 943.307 212.651 943.307 213.17ZM952.154 219V209.182H954.065V219H952.154ZM953.119 207.667C952.787 207.667 952.501 207.556 952.263 207.335C952.028 207.109 951.911 206.84 951.911 206.529C951.911 206.214 952.028 205.945 952.263 205.724C952.501 205.498 952.787 205.385 953.119 205.385C953.452 205.385 953.735 205.498 953.969 205.724C954.208 205.945 954.327 206.214 954.327 206.529C954.327 206.84 954.208 207.109 953.969 207.335C953.735 207.556 953.452 207.667 953.119 207.667ZM961.553 219V205.909H966.22C967.238 205.909 968.082 206.094 968.751 206.465C969.42 206.836 969.921 207.343 970.253 207.987C970.585 208.626 970.752 209.346 970.752 210.147C970.752 210.952 970.583 211.677 970.247 212.32C969.914 212.96 969.411 213.467 968.738 213.842C968.069 214.212 967.227 214.398 966.213 214.398H963.004V212.723H966.034C966.678 212.723 967.2 212.612 967.6 212.391C968.001 212.165 968.295 211.858 968.482 211.47C968.67 211.082 968.764 210.641 968.764 210.147C968.764 209.653 968.67 209.214 968.482 208.83C968.295 208.447 967.999 208.146 967.594 207.929C967.193 207.712 966.665 207.603 966.009 207.603H963.529V219H961.553ZM972.914 219V209.182H974.761V210.741H974.863C975.042 210.213 975.358 209.798 975.809 209.495C976.265 209.188 976.781 209.035 977.356 209.035C977.475 209.035 977.616 209.039 977.778 209.048C977.944 209.056 978.074 209.067 978.168 209.08V210.908C978.091 210.886 977.955 210.863 977.759 210.837C977.563 210.808 977.367 210.793 977.171 210.793C976.719 210.793 976.316 210.888 975.963 211.08C975.613 211.268 975.336 211.53 975.132 211.866C974.927 212.199 974.825 212.578 974.825 213.004V219H972.914ZM982.591 219.217C981.969 219.217 981.407 219.102 980.904 218.872C980.401 218.638 980.002 218.299 979.708 217.856C979.419 217.413 979.274 216.869 979.274 216.226C979.274 215.672 979.38 215.216 979.593 214.858C979.806 214.5 980.094 214.217 980.456 214.008C980.819 213.799 981.223 213.641 981.671 213.535C982.118 213.428 982.574 213.347 983.039 213.292C983.627 213.224 984.104 213.168 984.471 213.126C984.837 213.079 985.103 213.004 985.27 212.902C985.436 212.8 985.519 212.634 985.519 212.403V212.359C985.519 211.8 985.361 211.368 985.046 211.061C984.735 210.754 984.27 210.601 983.652 210.601C983.009 210.601 982.502 210.744 982.131 211.029C981.765 211.31 981.511 211.624 981.37 211.969L979.574 211.56C979.787 210.963 980.098 210.482 980.507 210.115C980.921 209.744 981.396 209.476 981.933 209.31C982.47 209.139 983.034 209.054 983.627 209.054C984.019 209.054 984.434 209.101 984.873 209.195C985.316 209.284 985.73 209.45 986.113 209.693C986.501 209.936 986.819 210.283 987.066 210.735C987.313 211.183 987.436 211.764 987.436 212.48V219H985.57V217.658H985.493C985.37 217.905 985.184 218.148 984.937 218.386C984.69 218.625 984.373 218.823 983.985 218.981C983.597 219.138 983.132 219.217 982.591 219.217ZM983.007 217.683C983.535 217.683 983.987 217.579 984.362 217.37C984.741 217.161 985.029 216.888 985.225 216.552C985.425 216.211 985.525 215.847 985.525 215.459V214.193C985.457 214.261 985.325 214.325 985.129 214.385C984.937 214.44 984.718 214.489 984.471 214.532C984.223 214.57 983.983 214.607 983.748 214.641C983.514 214.67 983.318 214.696 983.16 214.717C982.789 214.764 982.451 214.843 982.144 214.954C981.841 215.065 981.598 215.224 981.415 215.433C981.236 215.638 981.147 215.911 981.147 216.251C981.147 216.724 981.321 217.082 981.671 217.325C982.02 217.564 982.466 217.683 983.007 217.683ZM994.565 209.182V210.716H989.202V209.182H994.565ZM990.64 206.83H992.552V216.117C992.552 216.488 992.607 216.767 992.718 216.955C992.829 217.138 992.971 217.263 993.146 217.332C993.325 217.396 993.519 217.428 993.728 217.428C993.881 217.428 994.015 217.417 994.131 217.396C994.246 217.374 994.335 217.357 994.399 217.344L994.744 218.923C994.633 218.966 994.476 219.009 994.271 219.051C994.067 219.098 993.811 219.124 993.504 219.128C993.001 219.136 992.532 219.047 992.098 218.859C991.663 218.672 991.312 218.382 991.043 217.99C990.775 217.598 990.64 217.106 990.64 216.513V206.83ZM996.679 219V209.182H998.591V219H996.679ZM997.645 207.667C997.312 207.667 997.027 207.556 996.788 207.335C996.554 207.109 996.436 206.84 996.436 206.529C996.436 206.214 996.554 205.945 996.788 205.724C997.027 205.498 997.312 205.385 997.645 205.385C997.977 205.385 998.26 205.498 998.495 205.724C998.733 205.945 998.853 206.214 998.853 206.529C998.853 206.84 998.733 207.109 998.495 207.335C998.26 207.556 997.977 207.667 997.645 207.667ZM1003.29 219L1000.4 209.182H1002.38L1004.3 216.392H1004.4L1006.33 209.182H1008.3L1010.22 216.36H1010.32L1012.23 209.182H1014.2L1011.32 219H1009.37L1007.37 211.911H1007.23L1005.23 219H1003.29ZM1016.02 219V209.182H1017.93V219H1016.02ZM1016.98 207.667C1016.65 207.667 1016.36 207.556 1016.12 207.335C1015.89 207.109 1015.77 206.84 1015.77 206.529C1015.77 206.214 1015.89 205.945 1016.12 205.724C1016.36 205.498 1016.65 205.385 1016.98 205.385C1017.31 205.385 1017.6 205.498 1017.83 205.724C1018.07 205.945 1018.19 206.214 1018.19 206.529C1018.19 206.84 1018.07 207.109 1017.83 207.335C1017.6 207.556 1017.31 207.667 1016.98 207.667Z" fill="white"/>
<line x1="798" y1="214" x2="853" y2="214" stroke="#FEAAAA" stroke-width="2"/>
<line x1="211" y1="216" x2="266" y2="216" stroke="#FEAAAA" stroke-width="2"/>
<path d="M337.918 23V5.54545H340.551V13.8807H340.764L348.085 5.54545H351.401L344.361 13.4034L351.426 23H348.256L342.614 15.2017L340.551 17.571V23H337.918ZM358.332 23.2642C357.042 23.2642 355.931 22.9886 354.999 22.4375C354.073 21.8807 353.357 21.0994 352.852 20.0938C352.352 19.0824 352.102 17.8977 352.102 16.5398C352.102 15.1989 352.352 14.017 352.852 12.9943C353.357 11.9716 354.062 11.1733 354.965 10.5994C355.874 10.0256 356.937 9.73864 358.153 9.73864C358.891 9.73864 359.607 9.8608 360.3 10.1051C360.994 10.3494 361.616 10.733 362.167 11.2557C362.718 11.7784 363.153 12.4574 363.471 13.2926C363.789 14.1222 363.948 15.1307 363.948 16.3182V17.2216H353.542V15.3125H361.451C361.451 14.642 361.315 14.0483 361.042 13.5312C360.769 13.0085 360.386 12.5966 359.891 12.2955C359.403 11.9943 358.829 11.8438 358.17 11.8438C357.454 11.8438 356.829 12.0199 356.295 12.3722C355.766 12.7187 355.357 13.1733 355.067 13.7358C354.783 14.2926 354.641 14.8977 354.641 15.5511V17.0426C354.641 17.9176 354.795 18.6619 355.102 19.2756C355.414 19.8892 355.849 20.358 356.406 20.6818C356.962 21 357.613 21.1591 358.357 21.1591C358.84 21.1591 359.281 21.0909 359.678 20.9545C360.076 20.8125 360.42 20.6023 360.71 20.3239C360.999 20.0455 361.221 19.7017 361.374 19.2926L363.786 19.7273C363.593 20.4375 363.246 21.0597 362.746 21.5938C362.252 22.1222 361.63 22.5341 360.88 22.8295C360.136 23.1193 359.286 23.2642 358.332 23.2642ZM372.886 9.90909V11.9545H365.736V9.90909H372.886ZM367.653 6.77273H370.202V19.1562C370.202 19.6506 370.276 20.0227 370.423 20.2727C370.571 20.517 370.761 20.6847 370.994 20.7756C371.233 20.8608 371.491 20.9034 371.77 20.9034C371.974 20.9034 372.153 20.8892 372.307 20.8608C372.46 20.8324 372.58 20.8097 372.665 20.7926L373.125 22.8977C372.977 22.9545 372.767 23.0114 372.494 23.0682C372.222 23.1307 371.881 23.1648 371.472 23.1705C370.801 23.1818 370.176 23.0625 369.597 22.8125C369.017 22.5625 368.548 22.1761 368.19 21.6534C367.832 21.1307 367.653 20.4744 367.653 19.6847V6.77273ZM383.998 17.571V9.90909H386.555V23H384.049V20.733H383.913C383.612 21.4318 383.129 22.0142 382.464 22.4801C381.805 22.9403 380.984 23.1705 380.001 23.1705C379.16 23.1705 378.415 22.9858 377.768 22.6165C377.126 22.2415 376.62 21.6875 376.251 20.9545C375.887 20.2216 375.705 19.3153 375.705 18.2358V9.90909H378.254V17.929C378.254 18.821 378.501 19.5312 378.995 20.0597C379.489 20.5881 380.131 20.8523 380.921 20.8523C381.398 20.8523 381.873 20.733 382.344 20.4943C382.822 20.2557 383.217 19.8949 383.529 19.4119C383.847 18.929 384.004 18.3153 383.998 17.571ZM393.788 23.2898C392.959 23.2898 392.209 23.1364 391.538 22.8295C390.868 22.517 390.337 22.0653 389.945 21.4744C389.558 20.8835 389.365 20.1591 389.365 19.3011C389.365 18.5625 389.507 17.9545 389.791 17.4773C390.075 17 390.459 16.6222 390.942 16.3438C391.425 16.0653 391.964 15.8551 392.561 15.7131C393.158 15.571 393.766 15.4631 394.385 15.3892C395.169 15.2983 395.805 15.2244 396.294 15.1676C396.783 15.1051 397.138 15.0057 397.359 14.8693C397.581 14.733 397.692 14.5114 397.692 14.2045V14.1449C397.692 13.4006 397.482 12.8239 397.061 12.4148C396.646 12.0057 396.027 11.8011 395.203 11.8011C394.345 11.8011 393.669 11.9915 393.175 12.3722C392.686 12.7472 392.348 13.1648 392.161 13.625L389.766 13.0795C390.05 12.2841 390.464 11.642 391.01 11.1534C391.561 10.6591 392.195 10.3011 392.911 10.0795C393.626 9.85227 394.379 9.73864 395.169 9.73864C395.692 9.73864 396.246 9.80114 396.831 9.92614C397.422 10.0455 397.973 10.267 398.484 10.5909C399.001 10.9148 399.425 11.3778 399.754 11.9801C400.084 12.5767 400.249 13.3523 400.249 14.3068V23H397.76V21.2102H397.658C397.493 21.5398 397.246 21.8636 396.916 22.1818C396.587 22.5 396.163 22.7642 395.646 22.9744C395.129 23.1847 394.51 23.2898 393.788 23.2898ZM394.342 21.2443C395.047 21.2443 395.649 21.1051 396.149 20.8267C396.655 20.5483 397.038 20.1847 397.3 19.7358C397.567 19.2812 397.7 18.7955 397.7 18.2784V16.5909C397.609 16.6818 397.433 16.767 397.172 16.8466C396.916 16.9205 396.624 16.9858 396.294 17.0426C395.964 17.0937 395.643 17.142 395.331 17.1875C395.018 17.2273 394.757 17.2614 394.547 17.2898C394.053 17.3523 393.601 17.4574 393.192 17.6051C392.788 17.7528 392.464 17.9659 392.22 18.2443C391.982 18.517 391.862 18.8807 391.862 19.3352C391.862 19.9659 392.095 20.4432 392.561 20.767C393.027 21.0852 393.621 21.2443 394.342 21.2443Z" fill="#F49D03"/>
<path d="M632.335 23L627.494 5.54545H630.264L633.665 19.0625H633.827L637.364 5.54545H640.108L643.645 19.071H643.807L647.199 5.54545H649.977L645.128 23H642.477L638.804 9.92614H638.668L634.994 23H632.335ZM654.695 23.2898C653.865 23.2898 653.115 23.1364 652.445 22.8295C651.774 22.517 651.243 22.0653 650.851 21.4744C650.464 20.8835 650.271 20.1591 650.271 19.3011C650.271 18.5625 650.413 17.9545 650.697 17.4773C650.982 17 651.365 16.6222 651.848 16.3438C652.331 16.0653 652.871 15.8551 653.467 15.7131C654.064 15.571 654.672 15.4631 655.291 15.3892C656.075 15.2983 656.712 15.2244 657.2 15.1676C657.689 15.1051 658.044 15.0057 658.266 14.8693C658.487 14.733 658.598 14.5114 658.598 14.2045V14.1449C658.598 13.4006 658.388 12.8239 657.967 12.4148C657.553 12.0057 656.933 11.8011 656.109 11.8011C655.251 11.8011 654.575 11.9915 654.081 12.3722C653.592 12.7472 653.254 13.1648 653.067 13.625L650.672 13.0795C650.956 12.2841 651.371 11.642 651.916 11.1534C652.467 10.6591 653.101 10.3011 653.817 10.0795C654.533 9.85227 655.286 9.73864 656.075 9.73864C656.598 9.73864 657.152 9.80114 657.737 9.92614C658.328 10.0455 658.879 10.267 659.391 10.5909C659.908 10.9148 660.331 11.3778 660.661 11.9801C660.99 12.5767 661.155 13.3523 661.155 14.3068V23H658.666V21.2102H658.564C658.399 21.5398 658.152 21.8636 657.822 22.1818C657.493 22.5 657.07 22.7642 656.553 22.9744C656.036 23.1847 655.416 23.2898 654.695 23.2898ZM655.249 21.2443C655.953 21.2443 656.555 21.1051 657.055 20.8267C657.561 20.5483 657.945 20.1847 658.206 19.7358C658.473 19.2812 658.607 18.7955 658.607 18.2784V16.5909C658.516 16.6818 658.339 16.767 658.078 16.8466C657.822 16.9205 657.53 16.9858 657.2 17.0426C656.871 17.0937 656.55 17.142 656.237 17.1875C655.925 17.2273 655.663 17.2614 655.453 17.2898C654.959 17.3523 654.507 17.4574 654.098 17.6051C653.695 17.7528 653.371 17.9659 653.126 18.2443C652.888 18.517 652.768 18.8807 652.768 19.3352C652.768 19.9659 653.001 20.4432 653.467 20.767C653.933 21.0852 654.527 21.2443 655.249 21.2443ZM666.893 18.5597L666.876 15.4489H667.319L672.535 9.90909H675.586L669.637 16.2159H669.237L666.893 18.5597ZM664.549 23V5.54545H667.097V23H664.549ZM672.816 23L668.129 16.7784L669.884 14.9972L675.944 23H672.816ZM677.908 23V9.90909H680.457V23H677.908ZM679.195 7.8892C678.752 7.8892 678.371 7.74148 678.053 7.44602C677.741 7.14489 677.585 6.78693 677.585 6.37216C677.585 5.9517 677.741 5.59375 678.053 5.29829C678.371 4.99716 678.752 4.84659 679.195 4.84659C679.638 4.84659 680.016 4.99716 680.329 5.29829C680.647 5.59375 680.806 5.9517 680.806 6.37216C680.806 6.78693 680.647 7.14489 680.329 7.44602C680.016 7.74148 679.638 7.8892 679.195 7.8892ZM686.433 5.54545V23H683.885V5.54545H686.433ZM696.418 23V5.54545H699.051V13.8807H699.264L706.585 5.54545H709.901L702.861 13.4034L709.926 23H706.756L701.114 15.2017L699.051 17.571V23H696.418ZM716.832 23.2642C715.542 23.2642 714.431 22.9886 713.499 22.4375C712.573 21.8807 711.857 21.0994 711.352 20.0938C710.852 19.0824 710.602 17.8977 710.602 16.5398C710.602 15.1989 710.852 14.017 711.352 12.9943C711.857 11.9716 712.562 11.1733 713.465 10.5994C714.374 10.0256 715.437 9.73864 716.653 9.73864C717.391 9.73864 718.107 9.8608 718.8 10.1051C719.494 10.3494 720.116 10.733 720.667 11.2557C721.218 11.7784 721.653 12.4574 721.971 13.2926C722.289 14.1222 722.448 15.1307 722.448 16.3182V17.2216H712.042V15.3125H719.951C719.951 14.642 719.815 14.0483 719.542 13.5312C719.269 13.0085 718.886 12.5966 718.391 12.2955C717.903 11.9943 717.329 11.8438 716.67 11.8438C715.954 11.8438 715.329 12.0199 714.795 12.3722C714.266 12.7187 713.857 13.1733 713.567 13.7358C713.283 14.2926 713.141 14.8977 713.141 15.5511V17.0426C713.141 17.9176 713.295 18.6619 713.602 19.2756C713.914 19.8892 714.349 20.358 714.906 20.6818C715.462 21 716.113 21.1591 716.857 21.1591C717.34 21.1591 717.781 21.0909 718.178 20.9545C718.576 20.8125 718.92 20.6023 719.21 20.3239C719.499 20.0455 719.721 19.7017 719.874 19.2926L722.286 19.7273C722.093 20.4375 721.746 21.0597 721.246 21.5938C720.752 22.1222 720.13 22.5341 719.38 22.8295C718.636 23.1193 717.786 23.2642 716.832 23.2642ZM731.386 9.90909V11.9545H724.236V9.90909H731.386ZM726.153 6.77273H728.702V19.1562C728.702 19.6506 728.776 20.0227 728.923 20.2727C729.071 20.517 729.261 20.6847 729.494 20.7756C729.733 20.8608 729.991 20.9034 730.27 20.9034C730.474 20.9034 730.653 20.8892 730.807 20.8608C730.96 20.8324 731.08 20.8097 731.165 20.7926L731.625 22.8977C731.477 22.9545 731.267 23.0114 730.994 23.0682C730.722 23.1307 730.381 23.1648 729.972 23.1705C729.301 23.1818 728.676 23.0625 728.097 22.8125C727.517 22.5625 727.048 22.1761 726.69 21.6534C726.332 21.1307 726.153 20.4744 726.153 19.6847V6.77273ZM742.498 17.571V9.90909H745.055V23H742.549V20.733H742.413C742.112 21.4318 741.629 22.0142 740.964 22.4801C740.305 22.9403 739.484 23.1705 738.501 23.1705C737.66 23.1705 736.915 22.9858 736.268 22.6165C735.626 22.2415 735.12 21.6875 734.751 20.9545C734.387 20.2216 734.205 19.3153 734.205 18.2358V9.90909H736.754V17.929C736.754 18.821 737.001 19.5312 737.495 20.0597C737.989 20.5881 738.631 20.8523 739.421 20.8523C739.898 20.8523 740.373 20.733 740.844 20.4943C741.322 20.2557 741.717 19.8949 742.029 19.4119C742.347 18.929 742.504 18.3153 742.498 17.571ZM752.288 23.2898C751.459 23.2898 750.709 23.1364 750.038 22.8295C749.368 22.517 748.837 22.0653 748.445 21.4744C748.058 20.8835 747.865 20.1591 747.865 19.3011C747.865 18.5625 748.007 17.9545 748.291 17.4773C748.575 17 748.959 16.6222 749.442 16.3438C749.925 16.0653 750.464 15.8551 751.061 15.7131C751.658 15.571 752.266 15.4631 752.885 15.3892C753.669 15.2983 754.305 15.2244 754.794 15.1676C755.283 15.1051 755.638 15.0057 755.859 14.8693C756.081 14.733 756.192 14.5114 756.192 14.2045V14.1449C756.192 13.4006 755.982 12.8239 755.561 12.4148C755.146 12.0057 754.527 11.8011 753.703 11.8011C752.845 11.8011 752.169 11.9915 751.675 12.3722C751.186 12.7472 750.848 13.1648 750.661 13.625L748.266 13.0795C748.55 12.2841 748.964 11.642 749.51 11.1534C750.061 10.6591 750.695 10.3011 751.411 10.0795C752.126 9.85227 752.879 9.73864 753.669 9.73864C754.192 9.73864 754.746 9.80114 755.331 9.92614C755.922 10.0455 756.473 10.267 756.984 10.5909C757.501 10.9148 757.925 11.3778 758.254 11.9801C758.584 12.5767 758.749 13.3523 758.749 14.3068V23H756.26V21.2102H756.158C755.993 21.5398 755.746 21.8636 755.416 22.1818C755.087 22.5 754.663 22.7642 754.146 22.9744C753.629 23.1847 753.01 23.2898 752.288 23.2898ZM752.842 21.2443C753.547 21.2443 754.149 21.1051 754.649 20.8267C755.155 20.5483 755.538 20.1847 755.8 19.7358C756.067 19.2812 756.2 18.7955 756.2 18.2784V16.5909C756.109 16.6818 755.933 16.767 755.672 16.8466C755.416 16.9205 755.124 16.9858 754.794 17.0426C754.464 17.0937 754.143 17.142 753.831 17.1875C753.518 17.2273 753.257 17.2614 753.047 17.2898C752.553 17.3523 752.101 17.4574 751.692 17.6051C751.288 17.7528 750.964 17.9659 750.72 18.2443C750.482 18.517 750.362 18.8807 750.362 19.3352C750.362 19.9659 750.595 20.4432 751.061 20.767C751.527 21.0852 752.121 21.2443 752.842 21.2443Z" fill="#F49D03"/>
<path d="M628.918 178V160.545H635.31C636.548 160.545 637.574 160.75 638.386 161.159C639.199 161.562 639.807 162.111 640.21 162.804C640.614 163.491 640.815 164.267 640.815 165.131C640.815 165.858 640.682 166.472 640.415 166.972C640.148 167.466 639.79 167.864 639.341 168.165C638.898 168.46 638.409 168.676 637.875 168.812V168.983C638.455 169.011 639.02 169.199 639.571 169.545C640.128 169.886 640.588 170.372 640.952 171.003C641.315 171.634 641.497 172.401 641.497 173.304C641.497 174.196 641.287 174.997 640.866 175.707C640.452 176.412 639.81 176.972 638.94 177.386C638.071 177.795 636.96 178 635.608 178H628.918ZM631.551 175.741H635.352C636.614 175.741 637.517 175.497 638.062 175.009C638.608 174.52 638.881 173.909 638.881 173.176C638.881 172.625 638.741 172.119 638.463 171.659C638.185 171.199 637.787 170.832 637.27 170.56C636.759 170.287 636.151 170.151 635.446 170.151H631.551V175.741ZM631.551 168.097H635.08C635.67 168.097 636.202 167.983 636.673 167.756C637.151 167.528 637.528 167.21 637.807 166.801C638.091 166.386 638.233 165.898 638.233 165.335C638.233 164.614 637.98 164.009 637.474 163.52C636.969 163.031 636.193 162.787 635.148 162.787H631.551V168.097ZM650.058 178.264C648.768 178.264 647.658 177.989 646.726 177.438C645.8 176.881 645.084 176.099 644.578 175.094C644.078 174.082 643.828 172.898 643.828 171.54C643.828 170.199 644.078 169.017 644.578 167.994C645.084 166.972 645.788 166.173 646.692 165.599C647.601 165.026 648.663 164.739 649.879 164.739C650.618 164.739 651.334 164.861 652.027 165.105C652.72 165.349 653.342 165.733 653.893 166.256C654.445 166.778 654.879 167.457 655.197 168.293C655.516 169.122 655.675 170.131 655.675 171.318V172.222H645.268V170.312H653.178C653.178 169.642 653.041 169.048 652.768 168.531C652.496 168.009 652.112 167.597 651.618 167.295C651.129 166.994 650.555 166.844 649.896 166.844C649.18 166.844 648.555 167.02 648.021 167.372C647.493 167.719 647.084 168.173 646.794 168.736C646.51 169.293 646.368 169.898 646.368 170.551V172.043C646.368 172.918 646.521 173.662 646.828 174.276C647.141 174.889 647.575 175.358 648.132 175.682C648.689 176 649.339 176.159 650.084 176.159C650.567 176.159 651.007 176.091 651.405 175.955C651.803 175.812 652.146 175.602 652.436 175.324C652.726 175.045 652.947 174.702 653.101 174.293L655.513 174.727C655.32 175.437 654.973 176.06 654.473 176.594C653.979 177.122 653.357 177.534 652.607 177.83C651.862 178.119 651.013 178.264 650.058 178.264ZM661.05 170.227V178H658.502V164.909H660.948V167.04H661.11C661.411 166.347 661.883 165.79 662.525 165.369C663.173 164.949 663.988 164.739 664.971 164.739C665.863 164.739 666.644 164.926 667.315 165.301C667.985 165.67 668.505 166.222 668.874 166.955C669.244 167.687 669.428 168.594 669.428 169.673V178H666.88V169.98C666.88 169.031 666.633 168.29 666.138 167.756C665.644 167.216 664.965 166.946 664.102 166.946C663.511 166.946 662.985 167.074 662.525 167.33C662.07 167.585 661.71 167.96 661.442 168.455C661.181 168.943 661.05 169.534 661.05 170.227ZM677.746 178.256C676.69 178.256 675.746 177.986 674.917 177.446C674.093 176.901 673.445 176.125 672.974 175.119C672.508 174.108 672.275 172.895 672.275 171.48C672.275 170.065 672.511 168.855 672.982 167.849C673.46 166.844 674.113 166.074 674.942 165.54C675.772 165.006 676.712 164.739 677.763 164.739C678.576 164.739 679.229 164.875 679.724 165.148C680.224 165.415 680.61 165.727 680.883 166.085C681.161 166.443 681.377 166.759 681.531 167.031H681.684V160.545H684.232V178H681.744V175.963H681.531C681.377 176.241 681.156 176.56 680.866 176.918C680.582 177.276 680.19 177.588 679.69 177.855C679.19 178.122 678.542 178.256 677.746 178.256ZM678.309 176.082C679.042 176.082 679.661 175.889 680.167 175.503C680.678 175.111 681.065 174.568 681.326 173.875C681.593 173.182 681.727 172.375 681.727 171.455C681.727 170.545 681.596 169.75 681.335 169.068C681.073 168.386 680.69 167.855 680.184 167.474C679.678 167.094 679.053 166.903 678.309 166.903C677.542 166.903 676.903 167.102 676.391 167.5C675.88 167.898 675.494 168.44 675.232 169.128C674.977 169.815 674.849 170.591 674.849 171.455C674.849 172.33 674.979 173.116 675.241 173.815C675.502 174.514 675.888 175.068 676.4 175.477C676.917 175.881 677.553 176.082 678.309 176.082ZM691.679 178.29C690.849 178.29 690.099 178.136 689.429 177.83C688.759 177.517 688.227 177.065 687.835 176.474C687.449 175.884 687.256 175.159 687.256 174.301C687.256 173.562 687.398 172.955 687.682 172.477C687.966 172 688.349 171.622 688.832 171.344C689.315 171.065 689.855 170.855 690.452 170.713C691.048 170.571 691.656 170.463 692.276 170.389C693.06 170.298 693.696 170.224 694.185 170.168C694.673 170.105 695.028 170.006 695.25 169.869C695.472 169.733 695.582 169.511 695.582 169.205V169.145C695.582 168.401 695.372 167.824 694.952 167.415C694.537 167.006 693.918 166.801 693.094 166.801C692.236 166.801 691.56 166.991 691.065 167.372C690.577 167.747 690.239 168.165 690.051 168.625L687.656 168.08C687.94 167.284 688.355 166.642 688.901 166.153C689.452 165.659 690.085 165.301 690.801 165.08C691.517 164.852 692.27 164.739 693.06 164.739C693.582 164.739 694.136 164.801 694.722 164.926C695.313 165.045 695.864 165.267 696.375 165.591C696.892 165.915 697.315 166.378 697.645 166.98C697.974 167.577 698.139 168.352 698.139 169.307V178H695.651V176.21H695.548C695.384 176.54 695.136 176.864 694.807 177.182C694.477 177.5 694.054 177.764 693.537 177.974C693.02 178.185 692.401 178.29 691.679 178.29ZM692.233 176.244C692.938 176.244 693.54 176.105 694.04 175.827C694.545 175.548 694.929 175.185 695.19 174.736C695.457 174.281 695.591 173.795 695.591 173.278V171.591C695.5 171.682 695.324 171.767 695.062 171.847C694.807 171.92 694.514 171.986 694.185 172.043C693.855 172.094 693.534 172.142 693.222 172.188C692.909 172.227 692.648 172.261 692.438 172.29C691.943 172.352 691.491 172.457 691.082 172.605C690.679 172.753 690.355 172.966 690.111 173.244C689.872 173.517 689.753 173.881 689.753 174.335C689.753 174.966 689.986 175.443 690.452 175.767C690.918 176.085 691.511 176.244 692.233 176.244ZM704.082 170.227V178H701.533V160.545H704.048V167.04H704.21C704.516 166.335 704.985 165.776 705.616 165.361C706.246 164.946 707.07 164.739 708.087 164.739C708.985 164.739 709.769 164.923 710.44 165.293C711.116 165.662 711.638 166.213 712.008 166.946C712.383 167.673 712.57 168.582 712.57 169.673V178H710.022V169.98C710.022 169.02 709.775 168.276 709.281 167.747C708.786 167.213 708.099 166.946 707.218 166.946C706.616 166.946 706.076 167.074 705.599 167.33C705.127 167.585 704.755 167.96 704.482 168.455C704.215 168.943 704.082 169.534 704.082 170.227ZM719.781 178.29C718.951 178.29 718.201 178.136 717.531 177.83C716.86 177.517 716.329 177.065 715.937 176.474C715.55 175.884 715.357 175.159 715.357 174.301C715.357 173.562 715.499 172.955 715.783 172.477C716.067 172 716.451 171.622 716.934 171.344C717.417 171.065 717.957 170.855 718.553 170.713C719.15 170.571 719.758 170.463 720.377 170.389C721.161 170.298 721.798 170.224 722.286 170.168C722.775 170.105 723.13 170.006 723.352 169.869C723.573 169.733 723.684 169.511 723.684 169.205V169.145C723.684 168.401 723.474 167.824 723.053 167.415C722.638 167.006 722.019 166.801 721.195 166.801C720.337 166.801 719.661 166.991 719.167 167.372C718.678 167.747 718.34 168.165 718.153 168.625L715.758 168.08C716.042 167.284 716.457 166.642 717.002 166.153C717.553 165.659 718.187 165.301 718.903 165.08C719.619 164.852 720.371 164.739 721.161 164.739C721.684 164.739 722.238 164.801 722.823 164.926C723.414 165.045 723.965 165.267 724.477 165.591C724.994 165.915 725.417 166.378 725.746 166.98C726.076 167.577 726.241 168.352 726.241 169.307V178H723.752V176.21H723.65C723.485 176.54 723.238 176.864 722.908 177.182C722.579 177.5 722.156 177.764 721.638 177.974C721.121 178.185 720.502 178.29 719.781 178.29ZM720.335 176.244C721.039 176.244 721.641 176.105 722.141 175.827C722.647 175.548 723.031 175.185 723.292 174.736C723.559 174.281 723.692 173.795 723.692 173.278V171.591C723.602 171.682 723.425 171.767 723.164 171.847C722.908 171.92 722.616 171.986 722.286 172.043C721.957 172.094 721.636 172.142 721.323 172.188C721.011 172.227 720.749 172.261 720.539 172.29C720.045 172.352 719.593 172.457 719.184 172.605C718.781 172.753 718.457 172.966 718.212 173.244C717.974 173.517 717.854 173.881 717.854 174.335C717.854 174.966 718.087 175.443 718.553 175.767C719.019 176.085 719.613 176.244 720.335 176.244ZM729.635 178V164.909H732.098V166.989H732.234C732.473 166.284 732.893 165.73 733.496 165.327C734.104 164.918 734.791 164.713 735.558 164.713C735.717 164.713 735.905 164.719 736.121 164.73C736.342 164.741 736.516 164.756 736.641 164.773V167.21C736.538 167.182 736.357 167.151 736.095 167.116C735.834 167.077 735.572 167.057 735.311 167.057C734.709 167.057 734.172 167.185 733.7 167.44C733.234 167.69 732.865 168.04 732.592 168.489C732.32 168.932 732.183 169.437 732.183 170.006V178H729.635ZM742.538 178.29C741.709 178.29 740.959 178.136 740.288 177.83C739.618 177.517 739.087 177.065 738.695 176.474C738.308 175.884 738.115 175.159 738.115 174.301C738.115 173.562 738.257 172.955 738.541 172.477C738.825 172 739.209 171.622 739.692 171.344C740.175 171.065 740.714 170.855 741.311 170.713C741.908 170.571 742.516 170.463 743.135 170.389C743.919 170.298 744.555 170.224 745.044 170.168C745.533 170.105 745.888 170.006 746.109 169.869C746.331 169.733 746.442 169.511 746.442 169.205V169.145C746.442 168.401 746.232 167.824 745.811 167.415C745.396 167.006 744.777 166.801 743.953 166.801C743.095 166.801 742.419 166.991 741.925 167.372C741.436 167.747 741.098 168.165 740.911 168.625L738.516 168.08C738.8 167.284 739.214 166.642 739.76 166.153C740.311 165.659 740.945 165.301 741.661 165.08C742.376 164.852 743.129 164.739 743.919 164.739C744.442 164.739 744.996 164.801 745.581 164.926C746.172 165.045 746.723 165.267 747.234 165.591C747.751 165.915 748.175 166.378 748.504 166.98C748.834 167.577 748.999 168.352 748.999 169.307V178H746.51V176.21H746.408C746.243 176.54 745.996 176.864 745.666 177.182C745.337 177.5 744.913 177.764 744.396 177.974C743.879 178.185 743.26 178.29 742.538 178.29ZM743.092 176.244C743.797 176.244 744.399 176.105 744.899 175.827C745.405 175.548 745.788 175.185 746.05 174.736C746.317 174.281 746.45 173.795 746.45 173.278V171.591C746.359 171.682 746.183 171.767 745.922 171.847C745.666 171.92 745.374 171.986 745.044 172.043C744.714 172.094 744.393 172.142 744.081 172.188C743.768 172.227 743.507 172.261 743.297 172.29C742.803 172.352 742.351 172.457 741.942 172.605C741.538 172.753 741.214 172.966 740.97 173.244C740.732 173.517 740.612 173.881 740.612 174.335C740.612 174.966 740.845 175.443 741.311 175.767C741.777 176.085 742.371 176.244 743.092 176.244Z" fill="#F49D03"/>
<path d="M932.335 179L927.494 161.545H930.264L933.665 175.062H933.827L937.364 161.545H940.108L943.645 175.071H943.807L947.199 161.545H949.977L945.128 179H942.477L938.804 165.926H938.668L934.994 179H932.335ZM954.695 179.29C953.865 179.29 953.115 179.136 952.445 178.83C951.774 178.517 951.243 178.065 950.851 177.474C950.464 176.884 950.271 176.159 950.271 175.301C950.271 174.562 950.413 173.955 950.697 173.477C950.982 173 951.365 172.622 951.848 172.344C952.331 172.065 952.871 171.855 953.467 171.713C954.064 171.571 954.672 171.463 955.291 171.389C956.075 171.298 956.712 171.224 957.2 171.168C957.689 171.105 958.044 171.006 958.266 170.869C958.487 170.733 958.598 170.511 958.598 170.205V170.145C958.598 169.401 958.388 168.824 957.967 168.415C957.553 168.006 956.933 167.801 956.109 167.801C955.251 167.801 954.575 167.991 954.081 168.372C953.592 168.747 953.254 169.165 953.067 169.625L950.672 169.08C950.956 168.284 951.371 167.642 951.916 167.153C952.467 166.659 953.101 166.301 953.817 166.08C954.533 165.852 955.286 165.739 956.075 165.739C956.598 165.739 957.152 165.801 957.737 165.926C958.328 166.045 958.879 166.267 959.391 166.591C959.908 166.915 960.331 167.378 960.661 167.98C960.99 168.577 961.155 169.352 961.155 170.307V179H958.666V177.21H958.564C958.399 177.54 958.152 177.864 957.822 178.182C957.493 178.5 957.07 178.764 956.553 178.974C956.036 179.185 955.416 179.29 954.695 179.29ZM955.249 177.244C955.953 177.244 956.555 177.105 957.055 176.827C957.561 176.548 957.945 176.185 958.206 175.736C958.473 175.281 958.607 174.795 958.607 174.278V172.591C958.516 172.682 958.339 172.767 958.078 172.847C957.822 172.92 957.53 172.986 957.2 173.043C956.871 173.094 956.55 173.142 956.237 173.188C955.925 173.227 955.663 173.261 955.453 173.29C954.959 173.352 954.507 173.457 954.098 173.605C953.695 173.753 953.371 173.966 953.126 174.244C952.888 174.517 952.768 174.881 952.768 175.335C952.768 175.966 953.001 176.443 953.467 176.767C953.933 177.085 954.527 177.244 955.249 177.244ZM966.893 174.56L966.876 171.449H967.319L972.535 165.909H975.586L969.637 172.216H969.237L966.893 174.56ZM964.549 179V161.545H967.097V179H964.549ZM972.816 179L968.129 172.778L969.884 170.997L975.944 179H972.816ZM977.908 179V165.909H980.457V179H977.908ZM979.195 163.889C978.752 163.889 978.371 163.741 978.053 163.446C977.741 163.145 977.585 162.787 977.585 162.372C977.585 161.952 977.741 161.594 978.053 161.298C978.371 160.997 978.752 160.847 979.195 160.847C979.638 160.847 980.016 160.997 980.329 161.298C980.647 161.594 980.806 161.952 980.806 162.372C980.806 162.787 980.647 163.145 980.329 163.446C980.016 163.741 979.638 163.889 979.195 163.889ZM986.433 161.545V179H983.885V161.545H986.433Z" fill="#F49D03"/>
<path d="M60.3352 175L55.4943 157.545H58.2642L61.6648 171.062H61.8267L65.3636 157.545H68.108L71.6449 171.071H71.8068L75.1989 157.545H77.9773L73.1278 175H70.4773L66.804 161.926H66.6676L62.9943 175H60.3352ZM82.6946 175.29C81.8651 175.29 81.1151 175.136 80.4446 174.83C79.7741 174.517 79.2429 174.065 78.8509 173.474C78.4645 172.884 78.2713 172.159 78.2713 171.301C78.2713 170.562 78.4134 169.955 78.6974 169.477C78.9815 169 79.3651 168.622 79.848 168.344C80.331 168.065 80.8707 167.855 81.4673 167.713C82.0639 167.571 82.6719 167.463 83.2912 167.389C84.0753 167.298 84.7116 167.224 85.2003 167.168C85.6889 167.105 86.044 167.006 86.2656 166.869C86.4872 166.733 86.598 166.511 86.598 166.205V166.145C86.598 165.401 86.3878 164.824 85.9673 164.415C85.5526 164.006 84.9332 163.801 84.1094 163.801C83.2514 163.801 82.5753 163.991 82.081 164.372C81.5923 164.747 81.2543 165.165 81.0668 165.625L78.6719 165.08C78.956 164.284 79.3707 163.642 79.9162 163.153C80.4673 162.659 81.1009 162.301 81.8168 162.08C82.5327 161.852 83.2855 161.739 84.0753 161.739C84.598 161.739 85.152 161.801 85.7372 161.926C86.3281 162.045 86.8793 162.267 87.3906 162.591C87.9077 162.915 88.331 163.378 88.6605 163.98C88.9901 164.577 89.1548 165.352 89.1548 166.307V175H86.6662V173.21H86.5639C86.3991 173.54 86.152 173.864 85.8224 174.182C85.4929 174.5 85.0696 174.764 84.5526 174.974C84.0355 175.185 83.4162 175.29 82.6946 175.29ZM83.2486 173.244C83.9531 173.244 84.5554 173.105 85.0554 172.827C85.5611 172.548 85.9446 172.185 86.206 171.736C86.473 171.281 86.6065 170.795 86.6065 170.278V168.591C86.5156 168.682 86.3395 168.767 86.0781 168.847C85.8224 168.92 85.5298 168.986 85.2003 169.043C84.8707 169.094 84.5497 169.142 84.2372 169.188C83.9247 169.227 83.6634 169.261 83.4531 169.29C82.9588 169.352 82.5071 169.457 82.098 169.605C81.6946 169.753 81.3707 169.966 81.1264 170.244C80.8878 170.517 80.7685 170.881 80.7685 171.335C80.7685 171.966 81.0014 172.443 81.4673 172.767C81.9332 173.085 82.527 173.244 83.2486 173.244ZM94.8928 170.56L94.8757 167.449H95.3189L100.535 161.909H103.586L97.6371 168.216H97.2365L94.8928 170.56ZM92.549 175V157.545H95.0973V175H92.549ZM100.816 175L96.1286 168.778L97.8842 166.997L103.944 175H100.816ZM105.908 175V161.909H108.457V175H105.908ZM107.195 159.889C106.752 159.889 106.371 159.741 106.053 159.446C105.741 159.145 105.585 158.787 105.585 158.372C105.585 157.952 105.741 157.594 106.053 157.298C106.371 156.997 106.752 156.847 107.195 156.847C107.638 156.847 108.016 156.997 108.329 157.298C108.647 157.594 108.806 157.952 108.806 158.372C108.806 158.787 108.647 159.145 108.329 159.446C108.016 159.741 107.638 159.889 107.195 159.889ZM114.433 157.545V175H111.885V157.545H114.433Z" fill="#F49D03"/>
<line x1="536" y1="59" x2="536" y2="217" stroke="black" stroke-width="2"/>
<line x1="587" y1="216.5" x2="477" y2="216.5" stroke="black"/>
</svg>
