<svg width="12" height="9" viewBox="0 0 12 9" fill="none" xmlns="http://www.w3.org/2000/svg">
<path d="M0.761364 9V6.54545C0.761364 5.84848 0.897727 5.13636 1.17045 4.40909C1.44318 3.68182 1.80303 2.99621 2.25 2.35227C2.69697 1.70833 3.18182 1.17045 3.70455 0.738636L5.84091 2C5.41667 2.66667 5.06818 3.36364 4.79545 4.09091C4.5303 4.81818 4.39773 5.62879 4.39773 6.52273V9H0.761364ZM6.5 9V6.54545C6.5 5.84848 6.63636 5.13636 6.90909 4.40909C7.18182 3.68182 7.54167 2.99621 7.98864 2.35227C8.43561 1.70833 8.92045 1.17045 9.44318 0.738636L11.5795 2C11.1553 2.66667 10.8068 3.36364 10.5341 4.09091C10.2689 4.81818 10.1364 5.62879 10.1364 6.52273V9H6.5Z" fill="#FF7E3E"/>
</svg>
